<?xml version="1.0" standalone="no"?>
<!DOCTYPE svg PUBLIC "-//W3C//DTD SVG 20010904//EN"
 "http://www.w3.org/TR/2001/REC-SVG-20010904/DTD/svg10.dtd">
<svg version="1.0" xmlns="http://www.w3.org/2000/svg"
 width="700.000000pt" height="700.000000pt" viewBox="0 0 700.000000 700.000000"
 preserveAspectRatio="xMidYMid meet">
<g transform="translate(0.000000,700.000000) scale(0.100000,-0.100000)"
fill="#000000" stroke="none">
<path d="M142 6970 c-66 -34 -113 -91 -132 -161 -7 -24 -9 -1173 -8 -3330 l3
-3294 21 -40 c30 -56 71 -94 129 -121 l50 -24 3295 0 c3292 0 3295 0 3340 21
55 25 105 71 133 124 l22 40 0 3315 0 3315 -22 40 c-28 53 -78 99 -133 124
-45 21 -48 21 -3341 21 l-3296 0 -61 -30z m2528 -2070 l0 -450 -442 2 -443 3
-3 329 c-3 366 2 400 59 469 34 41 94 76 149 88 19 4 180 7 358 8 l322 1 0
-450z m2613 427 c63 -41 62 -31 62 -472 l0 -400 -890 0 -890 0 -3 435 c-1 239
0 441 3 448 4 10 171 12 848 10 786 -3 845 -4 870 -21z m-2613 -2672 c0 -988
3 -941 -57 -981 -26 -18 -51 -19 -385 -19 -345 0 -357 1 -385 21 -15 11 -36
36 -45 55 -17 32 -18 97 -18 932 l0 897 445 0 445 0 0 -905z m2678 508 c-3
-349 -5 -402 -20 -428 -34 -63 11 -60 -917 -60 l-846 0 -3 443 -2 442 895 0
896 0 -3 -397z"/>
</g>
</svg>
