<svg xmlns="http://www.w3.org/2000/svg" xmlns:xlink="http://www.w3.org/1999/xlink"><symbol viewBox="0 0 18 18" id="arrow_orange" xmlns="http://www.w3.org/2000/svg"><g transform="translate(1 1)" fill-rule="nonzero" fill="none"><circle stroke="#EA7125" cx="8" cy="8" r="8"/><path fill="#EA7125" d="M6.005 5.661L6.727 5 10 7.998 6.723 11 6 10.339l2.556-2.34z"/></g></symbol><symbol viewBox="0 0 14 20" id="bookmark" xmlns="http://www.w3.org/2000/svg"><path d="M1 1h12v18l-5.927-3.6L1 19z" stroke="#1C1C1C" fill="none" fill-rule="evenodd"/></symbol><symbol preserveAspectRatio="xMinYMid meet" viewBox="0 0 40 31" id="burger" xmlns="http://www.w3.org/2000/svg"><path fill="currentColor" d="M40 18v-4.5H0V18h38.519zM0 31.123h40v-4.5H0v3.6zM40 4.5V0H0v4.5h38.519z"/></symbol><symbol viewBox="0 0 32 32" id="designsystem" xmlns="http://www.w3.org/2000/svg"><g fill="#003479" fill-rule="nonzero"><path d="M12.665 6.157c.386-.18.566-.663.403-1.083-.165-.419-.61-.615-.998-.437C7.73 6.64 4.923 11.24 4.923 16.357c0 3.4 1.22 6.598 3.436 9a.727.727 0 0 0 .537.243c.195 0 .39-.081.538-.243a.874.874 0 0 0 0-1.166c-1.928-2.092-2.99-4.874-2.99-7.834 0-4.455 2.442-8.46 6.22-10.2zM28.056 31.753c.138.165.32.247.5.247a.651.651 0 0 0 .5-.247l2.736-3.27a.963.963 0 0 0 .001-1.194l-2.737-3.27c-.276-.33-.723-.33-1 0a.965.965 0 0 0 0 1.194L29.55 27H24.5c-.39 0-.706.378-.706.844 0 .467.316.845.707.845h5.12l-1.566 1.87a.965.965 0 0 0 0 1.194z"/><path d="M.742 31.086h4.846c.41 0 .742-.366.742-.818v-1.855h9.517c5.117 0 9.585-3.74 10.988-9.132 1.602-.228 2.933-1.504 3.322-3.274.097-.44-.148-.882-.546-.989-.398-.105-.8.164-.895.602-.268 1.22-1.252 2.072-2.392 2.072-1.356 0-2.46-1.218-2.46-2.714s1.104-2.714 2.46-2.714c.633 0 1.238.276 1.69.75l-1.196 1.317-.286-.442c-.239-.368-.701-.453-1.035-.19-.333.262-.411.772-.173 1.14l.794 1.229c.126.196.324.32.542.34.02.001.04.003.061.003a.709.709 0 0 0 .524-.24l3.716-4.085a.88.88 0 0 0 .002-1.158.695.695 0 0 0-1.05-.002l-.849.934c-.73-.777-1.71-1.232-2.74-1.232l-.042.002c-1.798-4.427-5.698-7.304-10.093-7.447l1.618-1.786a.88.88 0 0 0 0-1.157.694.694 0 0 0-1.05 0l-2.872 3.169a.877.877 0 0 0 0 1.156l2.873 3.169c.145.16.335.24.524.24.19 0 .38-.08.525-.24a.88.88 0 0 0 0-1.158L16.214 4.82c3.687.149 6.967 2.505 8.578 6.15-1.415.66-2.41 2.209-2.41 4.008 0 2.013 1.247 3.706 2.932 4.2-1.32 4.504-5.126 7.598-9.468 7.598H6.33V24.92c0-.452-.332-.819-.742-.819H.742c-.41 0-.742.367-.742.819v5.347c0 .452.332.818.742.818zm.742-5.346h3.362v3.709H1.484v-3.71z"/></g></symbol><symbol viewBox="0 0 32 31" id="download_item" xmlns="http://www.w3.org/2000/svg"><g fill="#2A6EBB" fill-rule="nonzero"><path d="M30.349 19c-.912 0-1.651.721-1.651 1.61v5.558c0 .89-.74 1.61-1.652 1.61H4.954c-.912 0-1.652-.72-1.652-1.61V20.61c0-.89-.739-1.611-1.65-1.611C.738 19 0 19.721 0 20.61v5.558C0 28.837 2.218 31 4.954 31h22.092C29.782 31 32 28.837 32 26.168V20.61c0-.89-.74-1.611-1.651-1.611z"/><path d="M16.5 0c-.898 0-1.625.76-1.625 1.697V16.21l-5.1-5.328a1.58 1.58 0 0 0-1.57-.439c-.56.157-1 .615-1.15 1.2-.15.586.01 1.211.421 1.64l7.874 8.22.029.03c.302.3.704.467 1.121.466a1.59 1.59 0 0 0 1.113-.467l.029-.03 7.882-8.219a1.75 1.75 0 0 0 0-2.4 1.578 1.578 0 0 0-2.3 0l-5.099 5.327V1.697C18.125.76 17.398 0 16.5 0z"/></g></symbol><symbol viewBox="0 0 13 13" id="filter" xmlns="http://www.w3.org/2000/svg"><path d="M12.964.232a.395.395 0 0 0-.36-.232H.396a.395.395 0 0 0-.359.232.403.403 0 0 0 .059.427l4.787 5.665v6.277a.4.4 0 0 0 .396.399c.109 0 .216-.046.292-.13l2.445-2.72a.401.401 0 0 0 .103-.268V6.324L12.905.66a.403.403 0 0 0 .059-.427z" fill="#000" fill-rule="nonzero"/></symbol><symbol viewBox="0 0 26 32" id="kayttajahaastattelut" xmlns="http://www.w3.org/2000/svg"><g fill="#003479" fill-rule="nonzero"><path d="M15.609 11.058h3.22C21.14 11.058 23 9.314 23 7.103v-3.19C23 1.743 21.14 0 18.828 0H8.172C5.859 0 4 1.744 4 3.913v3.19c0 2.169 1.86 3.955 4.172 3.955h2.449c-.091.808-.273 2.169-.363 2.892-.046.17.045.298.136.425.09.128.272.17.408.17.045 0 3.446-.17 4.807-3.487zm-4.127 2.34c.181-1.15.318-2.723.318-2.808a.687.687 0 0 0-.137-.425c-.09-.128-.272-.17-.408-.17H8.172c-1.678 0-3.038-1.276-3.038-2.892v-3.19c0-1.574 1.36-2.892 3.038-2.892h10.656c1.678 0 3.084 1.276 3.084 2.892v3.19c0 1.573-1.36 2.892-3.084 2.892H15.2c-.226 0-.453.17-.544.382-.725 2.084-2.267 2.765-3.174 3.02z"/><path d="M18 7.273c0-.283-.258-.485-.516-.485H7.516c-.301 0-.516.242-.516.485 0 .242.258.485.516.485h9.925c.301 0 .559-.202.559-.485zM7.518 4.848h6.969c.3 0 .513-.242.513-.484 0-.283-.257-.485-.513-.485h-6.97c-.299 0-.512.242-.512.485-.043.242.213.484.513.484zM21 13.576c-1.671 0-3 1.288-3 2.909 0 1.62 1.329 2.909 3 2.909s3-1.288 3-2.91c0-1.62-1.371-2.908-3-2.908zm0 4.779c-1.071 0-1.929-.831-1.929-1.87 0-1.04.858-1.87 1.929-1.87 1.071 0 1.929.83 1.929 1.87 0 1.039-.858 1.87-1.929 1.87zM21.425 20.84c-2.373 0-4.357 1.775-4.616 4.058-.216-.423-.431-.846-.56-1.142a8.198 8.198 0 0 0-.26-.592c-.215-.507-.862-1.31-1.984-1.31l-.388-1.1h.043a1.52 1.52 0 0 0 .863-.76c.172-.38.215-.761.043-1.142l-.518-1.353a1.585 1.585 0 0 0-1.467-1.014c-.172 0-.345.042-.517.084l-1.035.38c-.82.297-1.208 1.142-.95 1.946l.518 1.352c.216.592.82 1.015 1.467 1.015.172 0 .345-.042.517-.085l.346.973c-.216.127-.432.296-.561.507-.432.676-.259 1.48-.216 1.649.388 2.579 2.286 7.271 6.514 7.271h.345c.086 0 1.38-.127 2.847-.718.992-.423 2.114-1.057 2.89-2.03.087-.084.13-.211.216-.296v2.96a.52.52 0 0 0 .518.507.52.52 0 0 0 .517-.507v-6.13c.087-2.495-1.984-4.524-4.572-4.524zm2.545 7.228c-1.251 1.565-3.408 2.114-4.443 2.283-.345.043-.561.085-.561.085-.431.042-.863 0-1.251-.127-.345-.085-.647-.211-.95-.338-2.76-1.48-3.493-5.877-3.493-5.919v-.042c-.043-.127-.087-.592.086-.888.043-.084.13-.169.388-.254.906-.169 1.208.508 1.294.635v.042c.087.127.173.338.26.55.43 1.014.905 2.029 1.509 2.705a2.9 2.9 0 0 0 .518.507c.172.127.345.212.517.296.087.043.173.043.26.085.387.084.948 0 1.552-.634.863-.93 1.165-2.58 1.165-2.664v-.084a.505.505 0 0 0-.432-.507c-.302-.043-.56.126-.603.422-.087.38-.346 1.564-.906 2.114-.345.338-.518.296-.604.296a1.154 1.154 0 0 1-.432-.254V25.32c0-1.944 1.596-3.508 3.58-3.508a3.59 3.59 0 0 1 3.366 2.367V24.264c.258 1.564-.044 2.79-.82 3.804zm-12.294-8.243l-.475-1.353a.455.455 0 0 1 .302-.592l1.035-.38c.043 0 .087-.043.173-.043.216 0 .388.127.431.296l.518 1.353c.043.127.043.254 0 .338a.385.385 0 0 1-.259.254l-1.035.38c-.302.127-.604 0-.69-.253zM8 15.515c0-1.62-1.329-2.909-3-2.909s-3 1.288-3 2.91c0 1.62 1.329 2.908 3 2.908 1.629-.041 3-1.33 3-2.909zm-3-1.87c1.071 0 1.929.831 1.929 1.87 0 1.04-.858 1.87-1.929 1.87-1.071 0-1.929-.83-1.929-1.87 0-1.039.858-1.87 1.929-1.87zM4.54 20.364c-2.48 0-4.54 2.032-4.54 4.573v4.615c0 .297.252.509.505.509a.513.513 0 0 0 .504-.509v-4.615a3.494 3.494 0 0 1 3.49-3.515 3.494 3.494 0 0 1 3.49 3.515v4.615c0 .297.252.509.504.509s.505-.254.505-.509v-4.615c.084-2.54-1.977-4.573-4.457-4.573z"/></g></symbol><symbol viewBox="0 0 12 12" id="linkout" xmlns="http://www.w3.org/2000/svg"><g fill="#FFF" fill-rule="nonzero"><path d="M1 1v10h10V1H1zm6-1h5v5h-1v4h1v3H0V0h3v1h4V0z"/><path d="M6 6l5-5" stroke="#FFF" stroke-linecap="square"/></g></symbol><symbol viewBox="0 0 26 26" id="login_profile" xmlns="http://www.w3.org/2000/svg"><g transform="translate(1 1)" fill="none" fill-rule="evenodd"><circle stroke="#FFF" cx="12" cy="12" r="12"/><path d="M22.15 12.213c-.039.395-.064.79-.121 1.182-.318 2.17-1.247 4.043-2.773 5.622a.677.677 0 0 1-.063.05c-1.078-3.24-3.303-5.07-6.744-5.488 1.316-.192 2.348-.802 3.05-1.9.71-1.108.851-2.306.442-3.55-.623-1.898-2.473-3.035-4.51-2.796-1.857.217-3.41 1.848-3.58 3.702-.204 2.218 1.406 4.307 3.66 4.548-3.395.407-5.62 2.237-6.712 5.494-.11-.116-.228-.232-.337-.356-1.598-1.804-2.47-3.904-2.586-6.312a1.853 1.853 0 0 0-.03-.198v-.483c.014-.066.024-.132.03-.198.092-2.038.732-3.891 1.951-5.526 1.696-2.275 3.963-3.624 6.781-4.04.38-.055.765-.078 1.149-.118h.487c.059.014.118.023.178.03 1.878.078 3.61.621 5.164 1.669 2.512 1.692 3.995 4.038 4.449 7.038.057.378.08.761.119 1.142v.486l-.003.002z" fill="#FFF" fill-rule="nonzero"/></g></symbol><symbol viewBox="0 0 48 48" id="menetelmat" xmlns="http://www.w3.org/2000/svg"><g fill="#003479" fill-rule="nonzero"><path d="M24.873 9.818h-.735c-7.786 0-12.855 4.179-14.985 12.391-.073.216-.66 2.017.22 3.242.22.288.515.576 1.102.793l-3.82 6.771a.644.644 0 0 0 0 .72c.148.217.368.361.662.361h3.6l-.515 5.907c0 .793.294 1.585.881 2.162a4.096 4.096 0 0 0 2.865 1.152c.735 0 1.91-.216 3.159-1.224v5.187c0 .432.294.72.734.72h14.03c.441 0 .735-.288.735-.72v-7.06c1.249-1.73 9.476-14.193 5.29-22.117-4.555-8.285-11.093-8.285-13.223-8.285zm6.464 29.825c-.073.144-.147.288-.147.432v6.484H18.63v-6.484c0-.288-.221-.576-.515-.72-.294-.072-.661 0-.808.288-.955 1.369-2.13 2.161-3.306 2.161a2.59 2.59 0 0 1-1.763-.72c-.293-.36-.514-.72-.44-1.08l.587-6.628a.81.81 0 0 0-.22-.577.802.802 0 0 0-.514-.216H8.492l3.746-6.628a.644.644 0 0 0 0-.72.775.775 0 0 0-.66-.36h-.074c-.661 0-.882-.216-.882-.288-.367-.505-.147-1.585 0-1.945 3.012-11.383 10.945-11.383 13.59-11.383h.734c1.91 0 7.713 0 11.753 7.564 3.967 7.565-5.288 20.676-5.362 20.82zM21.992 3.509l1.264-1.17v4.61c0 .412.298.687.744.687s.744-.275.744-.688V2.34l1.264 1.17a.76.76 0 0 0 1.042 0 .631.631 0 0 0 0-.964L24.52.206C24.447.138 24.299 0 24 0a.838.838 0 0 0-.52.206l-2.53 2.27a.631.631 0 0 0 0 .964.845.845 0 0 0 1.042.069zM48 24.038c0-.15-.068-.301-.205-.527l-2.318-2.558c-.272-.301-.682-.301-.954 0a.78.78 0 0 0 0 1.053l1.159 1.28h-4.637c-.409 0-.681.3-.681.752 0 .451.272.752.681.752h4.569l-1.091 1.204a.78.78 0 0 0 0 1.053c.272.301.682.301.954 0l2.318-2.483c.137-.075.205-.3.205-.526zM2.34 24.79h4.608c.413 0 .688-.301.688-.752 0-.452-.275-.753-.688-.753H2.34l1.17-1.279a.775.775 0 0 0 0-1.053c-.276-.301-.688-.301-.964 0L.206 23.511c-.137.075-.206.226-.206.451 0 .226.069.452.206.527l2.34 2.558c.275.301.687.301.963 0a.775.775 0 0 0 0-1.053l-1.17-1.204zM36.218 12.847l3.696-3.657v1.79c0 .466.308.778.77.778.463 0 .77-.312.77-.778V7.323a.71.71 0 0 0-.23-.544.696.696 0 0 0-.54-.234h-3.696a.775.775 0 0 0-.77.778c0 .467.308.778.77.778h1.848l-3.696 3.734a.757.757 0 0 0 0 1.09c.231.233.77.233 1.078-.078zM7.316 11.782c.462 0 .77-.308.77-.77V9.24l3.696 3.619a.744.744 0 0 0 1.078 0 .744.744 0 0 0 0-1.078L9.164 8.086h1.848c.462 0 .77-.385.77-.77 0-.386-.385-.77-.77-.77H7.316c-.155 0-.386 0-.54.23a.7.7 0 0 0-.23.54v3.619c0 .462.384.847.77.847z"/><path d="M25.173 14.473c-.143-.218-.356-.291-.569-.291-.213 0-.426.145-.568.29l-6.464 9.164c-.142.219-.142.51-.07.728.141.218.354.363.638.363h2.416V32c0 .218.07.364.213.51a.638.638 0 0 0 .497.217H27.8c.426 0 .71-.29.71-.727v-7.273h2.415a.72.72 0 0 0 .71-.727.668.668 0 0 0-.213-.51l-6.25-9.017zm2.628 8.945a.638.638 0 0 0-.498.218.668.668 0 0 0-.213.51v7.272h-5.114v-7.273a.668.668 0 0 0-.213-.509.638.638 0 0 0-.497-.218H19.49l5.043-7.2 4.972 7.273-1.704-.073z"/></g></symbol><symbol viewBox="0 0 48 48" id="palvelut" xmlns="http://www.w3.org/2000/svg"><g fill="#003479" fill-rule="nonzero"><path d="M26.128.002a.558.558 0 0 0-.454.559v2.912c-.868.209-1.79.464-2.65.89l-1.972-1.971a.558.558 0 0 0-.802 0l-3.907 3.907a.558.558 0 0 0-.035.75l2.04 2.546a9.77 9.77 0 0 0-.854 2.128h-2.982a.558.558 0 0 0-.558.558v5.581c0 .308.25.558.558.558h2.912c.207.86.488 1.78.907 2.634l-1.988 1.988a.558.558 0 0 0 0 .785l3.907 3.907a.558.558 0 0 0 .802 0l1.971-1.971c.86.426 1.783.698 2.651.907v2.912c0 .309.25.558.559.558H31.814c.308 0 .558-.25.558-.558V26.67c.869-.21 1.79-.48 2.651-.907l1.971 1.97a.558.558 0 0 0 .803 0l3.906-3.906a.558.558 0 0 0 0-.785l-1.988-1.988c.42-.853.7-1.773.907-2.634h2.913c.308 0 .558-.25.558-.558v-5.581a.558.558 0 0 0-.558-.558h-2.983a9.77 9.77 0 0 0-.854-2.128l2.04-2.546a.558.558 0 0 0-.035-.75l-3.906-3.907a.558.558 0 0 0-.803 0l-1.97 1.97c-.86-.425-1.784-.68-2.652-.889V.561a.558.558 0 0 0-.558-.559H26.233a.558.558 0 0 0-.105 0zm.663 1.117h4.465v2.79c0 .255.172.477.418.54 1.124.28 2.381.55 3.21 1.047.22.13.5.095.68-.087l1.831-1.831 3.157 3.157-1.918 2.407a.558.558 0 0 0-.035.627c.547.911.777 1.553 1.046 2.634a.558.558 0 0 0 .541.436h2.79v4.465h-2.79a.558.558 0 0 0-.54.418c-.28 1.124-.55 2.364-1.047 3.192a.558.558 0 0 0 .07.68l1.831 1.85-3.105 3.104-1.831-1.832a.558.558 0 0 0-.68-.087c-.829.498-2.086.784-3.21 1.064a.558.558 0 0 0-.418.54v2.791H26.79v-2.79a.558.558 0 0 0-.419-.541c-1.124-.28-2.38-.566-3.21-1.064a.558.558 0 0 0-.68.087l-1.83 1.832-3.105-3.105 1.831-1.849a.558.558 0 0 0 .07-.68c-.498-.828-.767-2.068-1.047-3.192a.558.558 0 0 0-.54-.418H15.07v-4.465h2.79a.558.558 0 0 0 .541-.436c.27-1.081.5-1.723 1.047-2.634a.558.558 0 0 0-.035-.627l-1.919-2.407 3.157-3.157 1.832 1.831c.18.182.46.217.68.087.828-.498 2.085-.766 3.21-1.046a.558.558 0 0 0 .418-.54V1.118zm2.232 7.813a6.148 6.148 0 0 0-6.14 6.14 6.148 6.148 0 0 0 6.14 6.139 6.148 6.148 0 0 0 6.14-6.14 6.148 6.148 0 0 0-6.14-6.139zm0 1.116a5.015 5.015 0 0 1 5.024 5.023 5.015 5.015 0 0 1-5.024 5.023A5.015 5.015 0 0 1 24 15.071a5.015 5.015 0 0 1 5.023-5.023z"/><path d="M.454 26.184a.558.558 0 0 0-.454.558V42.37c0 .309.25.559.558.559h7.256c.308 0 .558-.25.558-.559v-.07c4.47 3.06 7.662 5.652 15.628 5.652 4.385 0 9.717-2.285 14.006-4.535s7.517-4.5 7.517-4.5c.85-.566 1.46-1.01 1.884-1.604.425-.595.593-1.299.593-2.198 0-.698-.284-1.289-.698-1.692s-.94-.646-1.447-.802c-1.015-.312-2.041-.297-2.32-.297-1.21 0-2.611.597-3.785 1.17-1.073.522-1.78.942-1.919 1.028-.289-1.554-1.59-2.756-3.226-2.756H24.209c-1.534-1.425-3.832-2.24-6.593-2.72-2.715-.472-5.892-.615-9.244-.628v-1.675a.558.558 0 0 0-.558-.558H.558a.558.558 0 0 0-.104 0zm.662 1.116h6.14V41.253a.558.558 0 0 0 0 .07v.489h-6.14V27.3zm7.256 2.25c3.315.015 6.448.141 9.052.593 2.756.479 4.915 1.304 6.175 2.564.104.11.25.173.401.175h10.605c1.246 0 2.232.986 2.232 2.232a2.215 2.215 0 0 1-2.232 2.233H18.419a.558.558 0 1 0 0 1.116h16.186c1.652 0 2.974-1.231 3.244-2.808a.558.558 0 0 0 .401-.07s.872-.555 1.988-1.099c1.116-.544 2.502-1.046 3.297-1.046.279 0 1.206 0 2.006.244.4.123.745.315.976.54.232.226.367.471.367.89 0 .775-.111 1.17-.384 1.552-.273.382-.78.776-1.605 1.326 0 0-3.19 2.215-7.412 4.43-4.223 2.215-9.495 4.412-13.483 4.412-8.1 0-10.74-2.588-15.628-5.877V29.55z"/></g></symbol><symbol viewBox="0 0 42 42" id="profile_mobile" xmlns="http://www.w3.org/2000/svg"><g fill="none" fill-rule="evenodd" opacity=".65"><ellipse cx="19.796" cy="20" rx="19.796" ry="20" fill="#FFF" stroke="#003479" transform="translate(1 1)"/><path d="M37.541 21.354c-.065.66-.107 1.318-.201 1.971-.524 3.618-2.056 6.738-4.574 9.37-.033.03-.067.058-.103.085-1.78-5.4-5.45-8.45-11.126-9.148 2.17-.32 3.872-1.338 5.032-3.168 1.17-1.846 1.403-3.842.728-5.916-1.028-3.163-4.08-5.058-7.439-4.66-3.064.362-5.626 3.08-5.906 6.17-.337 3.698 2.319 7.178 6.037 7.581-5.601.678-9.27 3.728-11.072 9.156-.183-.194-.376-.386-.556-.593-2.636-3.006-4.075-6.507-4.266-10.52-.01-.111-.027-.221-.05-.33v-.806a3.02 3.02 0 0 0 .05-.33c.15-3.397 1.207-6.484 3.218-9.21 2.798-3.792 6.538-6.04 11.187-6.731.628-.094 1.262-.132 1.894-.198h.804c.097.022.196.039.295.049 3.097.131 5.953 1.036 8.518 2.782 4.143 2.821 6.59 6.731 7.339 11.73.094.63.13 1.269.196 1.903v.81l-.005.003z" fill="#003479" fill-rule="nonzero"/></g></symbol><symbol viewBox="0 0 27 32" id="saavutettavuus" xmlns="http://www.w3.org/2000/svg"><g fill="#003479" fill-rule="nonzero"><path d="M16.951 3.327c0-1.743-1.545-3.155-3.451-3.155-1.906 0-3.451 1.413-3.451 3.155 0 1.743 1.545 3.155 3.451 3.155 1.905-.002 3.449-1.413 3.451-3.155zm-5.402 0c0-.985.874-1.784 1.951-1.784 1.078 0 1.951.799 1.951 1.784s-.873 1.784-1.951 1.784c-1.077-.001-1.95-.8-1.951-1.784zM14.845 31.13c.63.572 1.575.742 2.395.43.821-.311 1.356-1.044 1.357-1.856V11.049H24.8c1.214-.001 2.196-.9 2.196-2.01 0-1.11-.982-2.009-2.196-2.01H2.2c-1.214.001-2.196.9-2.196 2.01 0 1.11.982 2.009 2.196 2.01h6.204v18.655c0 .718.42 1.382 1.1 1.74.68.36 1.518.36 2.199 0 .68-.358 1.1-1.022 1.1-1.74v-9.647h1.397v9.647c-.002.535.23 1.048.646 1.425zM12.05 18.685c-.414 0-.75.307-.75.685v10.333a.63.63 0 0 1-.349.555.756.756 0 0 1-.7 0 .63.63 0 0 1-.349-.555v-19.34c0-.38-.335-.686-.75-.686H2.2a.714.714 0 0 1-.608-.319.592.592 0 0 1 0-.64A.714.714 0 0 1 2.2 8.4H24.8c.25 0 .482.12.608.319a.592.592 0 0 1 0 .64.714.714 0 0 1-.608.319h-6.954c-.415 0-.75.307-.75.686v19.34a.63.63 0 0 1-.35.555.756.756 0 0 1-.7 0 .63.63 0 0 1-.348-.555V19.37c0-.378-.336-.685-.75-.685H12.05z"/></g></symbol><symbol viewBox="0 0 32 31" id="sanastot" xmlns="http://www.w3.org/2000/svg"><path d="M.65 30.79c.399.22.887.196 1.263-.064 4.072-2.799 9.331-2.799 13.404 0 .016.011.034.014.05.024.019.011.032.028.052.038.042.023.087.033.132.05.045.02.09.04.138.053.069.019.137.025.208.032.035.002.069.015.104.015.01 0 .02-.004.031-.004.043-.001.084-.01.126-.015.062-.008.123-.017.184-.036.043-.013.084-.032.126-.05.038-.016.078-.025.115-.045.019-.01.031-.025.048-.037.018-.01.037-.015.055-.026 4.072-2.8 9.331-2.8 13.404 0a1.197 1.197 0 0 0 1.264.063c.396-.22.646-.65.646-1.118V4.518c0-.424-.206-.82-.548-1.056C26.774.247 20.796.108 16 3.029 11.204.108 5.226.247.548 3.462A1.282 1.282 0 0 0 0 4.518V29.67c0 .468.25.897.65 1.12zM31 4.533v23.77a16.958 16.958 0 0 0-7-1.507c-2.39 0-4.781.503-7 1.508V4.535a14.107 14.107 0 0 1 14 0zm-29.409 0a14.107 14.107 0 0 1 14 0v23.77a16.958 16.958 0 0 0-7-1.507c-2.39 0-4.78.503-7 1.508V4.535z" fill="#003479" fill-rule="nonzero"/></symbol><symbol viewBox="0 0 24 24" id="search" xmlns="http://www.w3.org/2000/svg"><g transform="translate(1 1)" fill-rule="nonzero" stroke="#636769" stroke-width="2" fill="none"><circle cx="8" cy="8" r="8"/><path d="M14 14l8 8" stroke-linecap="round"/></g></symbol><symbol viewBox="0 0 24 24" id="search_plus" xmlns="http://www.w3.org/2000/svg"><g fill="#EA7125" fill-rule="nonzero"><path d="M0 9.417c0 5.192 4.243 9.416 9.458 9.416a9.443 9.443 0 0 0 6.057-2.193L22.91 24 24 22.913l-7.388-7.355a9.343 9.343 0 0 0 2.305-6.142C18.917 4.224 14.673 0 9.458 0S0 4.225 0 9.417zm9.46-7.879c4.364 0 7.915 3.535 7.915 7.879 0 4.344-3.551 7.879-7.916 7.879-4.364 0-7.914-3.535-7.914-7.879 0-4.344 3.55-7.879 7.914-7.879z"/><path d="M8.568 13h1.865V9.83H14V8.172h-3.567V5H8.568v3.172H5V9.83h3.568z"/></g></symbol><symbol viewBox="0 0 32 32" id="segmentointi" xmlns="http://www.w3.org/2000/svg"><path d="M17.956 32h-.725V17.23H32v.726C32 25.7 25.699 32 17.956 32zm.725-13.32v11.85c6.368-.363 11.486-5.48 11.849-11.85H18.68zm-3.796 9.628h-.731C6.349 28.308 0 21.958 0 14.154 0 6.349 6.35 0 14.154 0c7.805 0 14.154 6.35 14.154 14.154v.73H14.885v13.424zM14.154 1.46c-7 0-12.693 5.694-12.693 12.693 0 6.754 5.303 12.292 11.962 12.673V13.423h13.403c-.38-6.66-5.918-11.962-12.672-11.962z" fill="#003479" fill-rule="nonzero"/></symbol><symbol viewBox="0 0 20 21" id="share" xmlns="http://www.w3.org/2000/svg"><g fill-rule="nonzero" fill="none"><path d="M7 9.87l6.5-4.37" stroke="#4F4F4F"/><path d="M16 20.5a3.5 3.5 0 1 1 0-7 3.5 3.5 0 0 1 0 7zm0-1a2.5 2.5 0 1 0 0-5 2.5 2.5 0 0 0 0 5zM16 7.5a3.5 3.5 0 1 1 0-7 3.5 3.5 0 0 1 0 7zm0-1a2.5 2.5 0 1 0 0-5 2.5 2.5 0 0 0 0 5zM4 14.5a3.5 3.5 0 1 1 0-7 3.5 3.5 0 0 1 0 7zm0-1a2.5 2.5 0 1 0 0-5 2.5 2.5 0 0 0 0 5z" fill="#4F4F4F"/><path fill="#4F4F4F" d="M6.71 12.277l.58-.814 6.5 4.63-.58.814z"/></g></symbol><symbol viewBox="0 0 18 18" id="subheader_arrow" xmlns="http://www.w3.org/2000/svg"><g transform="translate(1 1)" fill-rule="nonzero" fill="none"><circle stroke="#2A6EBB" cx="8" cy="8" r="8"/><path fill="#3D81CE" d="M6.005 5.661L6.727 5 10 7.998 6.723 11 6 10.339l2.556-2.34z"/></g></symbol><symbol viewBox="0 0 43 43" id="tyokalut" xmlns="http://www.w3.org/2000/svg"><path d="M22.658 17.283l-3.32 3.321H8.51c-4.692 0-8.51 3.818-8.51 8.51 0 4.693 3.818 8.511 8.51 8.511h2.312C11.259 40.659 13.868 43 17.02 43c3.152 0 5.762-2.34 6.199-5.375h7.31c.437 3.034 3.047 5.375 6.2 5.375A6.278 6.278 0 0 0 43 36.73a6.278 6.278 0 0 0-6.27-6.272c-3.153 0-5.763 2.341-6.2 5.375h-7.31c-.437-3.034-3.047-5.375-6.2-5.375-3.152 0-5.761 2.341-6.198 5.375H8.51a6.726 6.726 0 0 1-6.718-6.718 6.726 6.726 0 0 1 6.718-6.72h10.827l3.321 3.322 1.267-1.267-2.054-2.054H34.49c4.692 0 8.51-3.818 8.51-8.51 0-4.693-3.818-8.511-8.51-8.511h-2.312C31.741 2.341 29.132 0 25.98 0c-3.152 0-5.762 2.34-6.199 5.375h-7.31C12.033 2.341 9.423 0 6.27 0A6.278 6.278 0 0 0 0 6.27a6.278 6.278 0 0 0 6.27 6.272c3.153 0 5.763-2.341 6.2-5.375h7.31c.437 3.034 3.047 5.375 6.2 5.375 3.152 0 5.761-2.341 6.198-5.375h2.312a6.726 6.726 0 0 1 6.718 6.718 6.726 6.726 0 0 1-6.718 6.72H21.87l2.055-2.055-1.267-1.267zM36.73 32.25c2.47 0 4.48 2.01 4.48 4.48 0 2.469-2.01 4.478-4.48 4.478-2.47 0-4.479-2.009-4.479-4.479s2.01-4.479 4.48-4.479zm-19.708 0c2.47 0 4.479 2.01 4.479 4.48 0 2.469-2.01 4.478-4.48 4.478-2.469 0-4.478-2.009-4.478-4.479s2.009-4.479 4.479-4.479zM6.27 10.75c-2.47 0-4.48-2.01-4.48-4.48 0-2.469 2.01-4.478 4.48-4.478 2.47 0 4.479 2.009 4.479 4.479S8.74 10.75 6.27 10.75zm19.708 0c-2.47 0-4.479-2.01-4.479-4.48 0-2.469 2.01-4.478 4.48-4.478 2.469 0 4.478 2.009 4.478 4.479S28.45 10.75 25.98 10.75z" fill="#003479" fill-rule="nonzero"/></symbol></svg>