<?xml version="1.0" encoding="utf-8"?>
<!-- Generator: Adobe Illustrator 22.1.0, SVG Export Plug-In . SVG Version: 6.00 Build 0)  -->
<svg version="1.1" id="Layer_1" xmlns="http://www.w3.org/2000/svg" xmlns:xlink="http://www.w3.org/1999/xlink" x="0px" y="0px"
	 viewBox="0 0 607.9 134.2" style="enable-background:new 0 0 607.9 134.2;" xml:space="preserve">
<style type="text/css">
	.st0{fill:#010101;}
	.st1{fill:#385BA9;}
	.st2{fill:#FFFFFF;}
</style>
<g>
	<path d="M340.7,82.2c-1.7,0.3-3.1,0.8-4.4,1.2c-1.3,0.4-2.4,0.8-3.2,0.8c-2.7,0-4.6-0.6-5.6-1.7c-1-1.2-1.6-3.5-1.6-6.7V50.9h15.1
		v-14H326V23.6h-15.1l0,13.3h-10v14h9.5v27.6c0,12.5,5.5,18.6,16.8,18.6c4.8,0,9.5-0.6,14.1-1.7l1.1-0.3V81.9L340.7,82.2z"/>
	<polygon points="28.7,66.7 59.4,35.4 40.1,35.4 15.3,61.2 15.3,0 0,0 0,97.4 15.3,97.4 15.3,72.3 41,97.4 61.4,97.4 	"/>
	<path d="M114.9,35.4v7.2c-5.6-5.2-12.9-8-20.9-8c-18.7,0-32.2,13.4-32.2,31.8c0,18.4,13.5,31.8,32.2,31.8c8,0,15.3-2.8,20.9-8v7.2
		H129v-62H114.9z M112.4,66.4c0,10-8.4,18.1-18.8,18.1C83,84.5,75,76.7,75,66.4c0-10.2,8-18,18.6-18
		C104.1,48.4,112.4,56.3,112.4,66.4z"/>
	<rect x="142.7" width="15.3" height="97.4"/>
	<path d="M220.6,35.4v7.2c-5.6-5.2-12.9-8-20.9-8c-18.7,0-32.2,13.4-32.2,31.8c0,18.4,13.5,31.8,32.2,31.8c8,0,15.3-2.8,20.9-8v7.2
		h14.1v-62H220.6z M218.2,66.4c0,10-8.4,18.1-18.8,18.1c-10.6,0-18.6-7.8-18.6-18.1c0-10.2,8-18,18.6-18
		C209.9,48.4,218.2,56.3,218.2,66.4z"/>
	<path d="M273.6,59.8c-5.8-2-10.9-3.8-10.8-7.2c0-2.6,2.9-4.4,7-4.4c5.4,0,10.7,3.8,12.7,5.4l1.1,0.9l9.1-10.3l-1-1
		c-4.3-4.3-12.3-8.9-22.1-8.8c-13.1,0-22.6,7.5-22.6,17.9c-0.1,12.5,11,16.4,19.8,19.4c6.1,2.1,11.4,4,11.4,7.8c0,2.9-3.3,5-8.1,5
		c-6.5,0-12.1-4.1-14.9-6.5l-1.1-1l-9.7,10.4l1,1c5.7,5.8,15.7,9.8,24.3,9.8c14.2,0,24.2-7.6,24.3-18.5
		C294.1,66.9,282.7,62.9,273.6,59.8z"/>
	<path d="M440.7,59.8c-5.8-2-10.9-3.8-10.8-7.2c0-2.6,2.9-4.4,7-4.4c5.4,0,10.7,3.8,12.7,5.4l1.1,0.9l9.1-10.3l-1-1
		c-4.3-4.3-12.3-8.9-22.1-8.8c-13.1,0-22.6,7.5-22.6,17.9c-0.1,12.5,11,16.4,19.8,19.4c6.1,2.1,11.4,4,11.4,7.8c0,2.9-3.3,5-8.1,5
		c-6.5,0-12.1-4.1-14.9-6.5l-1.1-1l-9.7,10.4l1,1c5.7,5.8,15.7,9.8,24.3,9.8c14.2,0,24.2-7.6,24.3-18.5
		C461.2,66.9,449.8,62.9,440.7,59.8z"/>
	<path class="st0" d="M407.2,24.9c-1.6-5.1-6.2-8.6-11.4-8.5c-5,0.1-9.6,3.5-11,8.4c-1.4,4.7,0.1,9.4,4,12.7l0,2.2c0,4,0,9.5,0,11.4
		c0.1,8.5,0.1,17.2-0.2,25.7c-0.1,2.9-1.7,5.4-4.2,6.9c-2.8,1.6-8,1.8-10.9,0.3c-3.4-1.7-5.4-6.7-5.4-13.5l7.8,0.1l-21.9-34.4v13.4
		c0,2.4,0,5-0.1,7.8l0,0.4c-0.1,7-0.1,14.3,0.1,19.9c0.3,6.2,3.4,12.1,8.5,16.2c4.3,3.5,11.7,5.3,16.7,5.3c1.2,0,2.4-0.1,3.5-0.3
		c12.2-2,20.4-11.6,20.4-23.9c0-3.4,0-6.7,0-10.1v-1c0-5.8,0-19.3,0-26.6C407.1,34.3,408.6,29.6,407.2,24.9z"/>
	<g>
		<path class="st1" d="M596.9,30.5c-15.4-6.8-89.5-5.2-105.6,0c-11.9,3.8-11,23.2-11,35.7s-0.9,31.8,11,35.7
			c16,5.2,90.1,6.8,105.6,0c11.4-5,11-23.2,11-35.7S608.4,35.5,596.9,30.5z"/>
		<g>
			<polygon class="st2" points="500.7,50.5 514.5,50.5 514.5,90.8 523.8,90.8 523.8,50.5 537.3,50.5 537.3,42.4 500.7,42.4 			"/>
			<polygon class="st2" points="579.6,42.4 564.6,74.9 549.6,42.4 539.2,42.4 563.4,91.5 565.8,91.5 589.9,42.4 			"/>
		</g>
	</g>
</g>
</svg>
