<?xml version="1.0" encoding="UTF-8"?>
<svg width="32px" height="31px" viewBox="0 0 32 31" version="1.1" xmlns="http://www.w3.org/2000/svg" xmlns:xlink="http://www.w3.org/1999/xlink">
    <!-- Generator: Sketch 51.3 (57544) - http://www.bohemiancoding.com/sketch -->
    <title>noun_Download_1272055_000000</title>
    <desc>Created with Sketch.</desc>
    <defs></defs>
    <g id="v7" stroke="none" stroke-width="1" fill="none" fill-rule="evenodd">
        <g id="Desktop-asiakaskeskeisyys" transform="translate(-512.000000, -1137.000000)" fill="currentColor" fill-rule="nonzero">
            <g id="downloadable-item" transform="translate(512.000000, 1134.000000)">
                <g id="noun_Download_1272055_000000" transform="translate(0.000000, 3.000000)">
                    <path d="M30.3488132,19 C29.4368879,19 28.6976264,19.7211521 28.6976264,20.6107383 L28.6976264,26.1677852 C28.6976264,27.0573714 27.9583649,27.7785235 27.0464396,27.7785235 L4.95356037,27.7785235 C4.04163509,27.7785235 3.30237358,27.0573714 3.30237358,26.1677852 L3.30237358,20.6107383 C3.30237358,19.7211521 2.56311207,19 1.65118679,19 C0.739261507,19 0,19.7211521 0,20.6107383 L0,26.1677852 C7.33274237e-16,28.8365438 2.21778452,31 4.95356037,31 L27.0464396,31 C29.7822155,31 32,28.8365438 32,26.1677852 L32,20.6107383 C32,19.7211521 31.2607385,19 30.3488132,19 Z" id="Shape"></path>
                    <path d="M16.5000185,7.53419088e-16 C15.6024658,1.50683818e-15 14.8748555,0.759570843 14.8748555,1.69654896 L14.8748555,16.2105253 L9.77590661,10.8833616 C9.36512163,10.4545327 8.76638947,10.287056 8.20524674,10.4440182 C7.64410402,10.6009805 7.20580166,11.0585355 7.05544392,11.6443266 C6.90508618,12.2301178 7.06551598,12.8551495 7.47630096,13.2839784 L15.3502157,21.5037581 L15.3786561,21.5334477 C15.6812012,21.8334907 16.0827148,22.0005434 16.5000185,21.9999987 C16.9145127,21.9983733 17.3127477,21.8314753 17.6132552,21.5334477 L17.6416956,21.5037581 L25.5237361,13.2839784 C26.1587546,12.6210663 26.1587546,11.5462736 25.5237361,10.8833616 C24.8887175,10.2204496 23.859149,10.2204496 23.2241305,10.8833616 L18.1251815,16.2105253 L18.1251815,1.69654896 C18.1251815,0.759570843 17.3975713,0 16.5000185,7.53419088e-16 Z" id="Shape"></path>
                </g>
            </g>
        </g>
    </g>
</svg>
