<?xml version="1.0" encoding="UTF-8"?>
<svg width="26px" height="32px" viewBox="0 0 26 32" version="1.1" xmlns="http://www.w3.org/2000/svg" xmlns:xlink="http://www.w3.org/1999/xlink">
    <!-- Generator: Sketch 51.3 (57544) - http://www.bohemiancoding.com/sketch -->
    <title>interview</title>
    <desc>Created with Sketch.</desc>
    <defs></defs>
    <g id="v7" stroke="none" stroke-width="1" fill="none" fill-rule="evenodd">
        <g id="Desktop-kehittäminen" transform="translate(-875.000000, -810.000000)" fill="#003479" fill-rule="nonzero">
            <g id="palvelut" transform="translate(496.000000, 738.000000)">
                <g id="item-copy" transform="translate(360.000000, 56.000000)">
                    <g id="interview" transform="translate(16.000000, 16.000000)">
                        <g transform="translate(3.000000, 0.000000)" id="Shape">
                            <path d="M15.6085919,11.0579479 L18.8281623,11.0579479 C21.1408115,11.0579479 23,9.31419458 23,7.102605 L23,3.91281233 C23,1.74375332 21.1408115,0 18.8281623,0 L8.17183771,0 C5.85918854,0 4,1.74375332 4,3.91281233 L4,7.102605 C4,9.27166401 5.85918854,11.0579479 8.17183771,11.0579479 L10.6205251,11.0579479 C10.5298329,11.8660287 10.3484487,13.2270069 10.2577566,13.9500266 C10.2124105,14.1201489 10.3031026,14.2477406 10.3937947,14.3753323 C10.4844869,14.502924 10.6658711,14.5454545 10.8019093,14.5454545 C10.8019093,14.5454545 10.8019093,14.5454545 10.8019093,14.5454545 C10.8472554,14.5454545 14.24821,14.3753323 15.6085919,11.0579479 Z M11.4821002,13.3971292 C11.6634845,12.2488038 11.7995227,10.6751728 11.7995227,10.5901116 C11.7995227,10.4199894 11.7541766,10.2923977 11.6634845,10.164806 C11.5727924,10.0372142 11.3914081,9.99468368 11.2553699,9.99468368 L8.17183771,9.99468368 C6.49403341,9.99468368 5.13365155,8.71876661 5.13365155,7.102605 L5.13365155,3.91281233 C5.13365155,2.33918129 6.49403341,1.02073365 8.17183771,1.02073365 L18.8281623,1.02073365 C20.5059666,1.02073365 21.9116945,2.29665072 21.9116945,3.91281233 L21.9116945,7.102605 C21.9116945,8.67623604 20.5513126,9.99468368 18.8281623,9.99468368 L15.2004773,9.99468368 C14.973747,9.99468368 14.7470167,10.164806 14.6563246,10.3774588 C13.9307876,12.4614567 12.3890215,13.1419458 11.4821002,13.3971292 Z"></path>
                            <path d="M18,7.27272727 C18,6.98989899 17.7421875,6.78787879 17.484375,6.78787879 L7.515625,6.78787879 C7.21484375,6.78787879 7,7.03030303 7,7.27272727 C7,7.51515152 7.2578125,7.75757576 7.515625,7.75757576 L17.4414062,7.75757576 C17.7421875,7.75757576 18,7.55555556 18,7.27272727 Z"></path>
                            <path d="M7.51774776,4.84848485 L14.4869313,4.84848485 C14.7862214,4.84848485 15,4.60606061 15,4.36363636 C15,4.08080808 14.7434656,3.87878788 14.4869313,3.87878788 L7.51774776,3.87878788 C7.21845767,3.87878788 7.00467904,4.12121212 7.00467904,4.36363636 C6.96192331,4.60606061 7.21845767,4.84848485 7.51774776,4.84848485 Z"></path>
                            <path d="M21,13.5757576 C19.3285714,13.5757576 18,14.8640693 18,16.4848485 C18,18.1056277 19.3285714,19.3939394 21,19.3939394 C22.6714286,19.3939394 24,18.1056277 24,16.4848485 C24,14.8640693 22.6285714,13.5757576 21,13.5757576 Z M21,18.3549784 C19.9285714,18.3549784 19.0714286,17.5238095 19.0714286,16.4848485 C19.0714286,15.4458874 19.9285714,14.6147186 21,14.6147186 C22.0714286,14.6147186 22.9285714,15.4458874 22.9285714,16.4848485 C22.9285714,17.5238095 22.0714286,18.3549784 21,18.3549784 Z"></path>
                            <path d="M21.4247676,20.8392371 C19.0521761,20.8392371 17.0678269,22.614813 16.8089987,24.8976963 C16.5933086,24.4749401 16.3776184,24.052184 16.2482043,23.7562546 C16.1619283,23.5448766 16.0756522,23.3334985 15.9893762,23.164396 C15.7736861,22.6570886 15.1266156,21.8538519 14.0050269,21.8538519 L13.6167847,20.7546858 L13.6599227,20.7546858 C14.048165,20.627859 14.3501312,20.3319297 14.5226833,19.9937247 C14.6952354,19.6132442 14.7383734,19.2327636 14.5658213,18.852283 L14.048165,17.4994633 C13.8324748,16.9076047 13.2285425,16.4848485 12.5814721,16.4848485 C12.4089199,16.4848485 12.2363678,16.5271241 12.0638157,16.5693997 L11.0285031,16.9498803 C10.2088806,17.2458096 9.82063833,18.0913219 10.0794665,18.8945587 L10.5971228,20.2473784 C10.8128129,20.8392371 11.4167453,21.2619932 12.0638157,21.2619932 C12.2363678,21.2619932 12.4089199,21.2197176 12.5814721,21.177442 L12.9265763,22.1497812 C12.7108861,22.276608 12.495196,22.4457105 12.3657819,22.6570886 C11.9344016,23.3334985 12.1069538,24.1367352 12.1500918,24.3058377 C12.538334,26.8846503 14.4364072,31.5772438 18.6639339,31.5772438 C18.7933479,31.5772438 18.879624,31.5772438 19.0090381,31.5772438 C19.0953141,31.5772438 20.3894549,31.450417 21.8561479,30.8585583 C22.8483225,30.4358022 23.9699112,29.8016679 24.7463957,28.8293287 C24.8326717,28.7447775 24.8758098,28.6179506 24.9620858,28.5333994 L24.9620858,31.4081414 L24.9620858,31.4926926 C24.9620858,31.7886219 25.220914,32 25.4797421,32 C25.7817083,32 25.9973985,31.7463463 25.9973985,31.4926926 L25.9973985,25.3627281 C26.0836745,22.8684667 24.0130492,20.8392371 21.4247676,20.8392371 Z M23.9699112,28.0683676 C22.7189084,29.6325654 20.562007,30.1821485 19.5266944,30.3512509 C19.1815902,30.3935265 18.9659001,30.4358022 18.9659001,30.4358022 C18.5345198,30.4780778 18.1031395,30.4358022 17.7148973,30.3089753 C17.3697931,30.2244241 17.0678269,30.0975972 16.7658607,29.9707704 C14.0050269,28.4911238 13.2716805,24.0944596 13.2716805,24.052184 C13.2716805,24.052184 13.2716805,24.0099083 13.2716805,24.0099083 C13.2285425,23.8830815 13.1854044,23.4180497 13.3579565,23.1221204 C13.4010946,23.0375692 13.4873706,22.9530179 13.7461988,22.8684667 C14.6520973,22.6993642 14.9540635,23.3757741 15.0403396,23.5026009 C15.0403396,23.5026009 15.0403396,23.5448766 15.0403396,23.5448766 C15.1266156,23.6717034 15.2128917,23.8830815 15.2991678,24.0944596 C15.730548,25.1090744 16.2050663,26.1236892 16.8089987,26.8000991 C16.9815508,27.0114772 17.1541029,27.1805796 17.326655,27.3074065 C17.4992071,27.4342333 17.6717592,27.5187846 17.8443113,27.6033358 C17.9305874,27.6456114 18.0168635,27.6456114 18.1031395,27.687887 C18.4913818,27.7724383 19.0521761,27.687887 19.6561085,27.0537528 C20.518869,26.1236892 20.8208352,24.4749401 20.8208352,24.3903889 C20.8208352,24.3481133 20.8208352,24.3058377 20.8208352,24.3058377 C20.8208352,24.052184 20.6482831,23.8408059 20.3894549,23.7985303 C20.0874888,23.7562546 19.8286606,23.9253571 19.7855226,24.2212864 C19.6992465,24.601767 19.4404183,25.7854843 18.879624,26.3350673 C18.5345198,26.6732722 18.3619677,26.6309966 18.2756916,26.6309966 C18.1462775,26.588721 17.9737254,26.5041698 17.8443113,26.3773429 L17.8443113,25.3204525 C17.8443113,23.3757741 19.4404183,21.8115763 21.4247676,21.8115763 C22.9777366,21.8115763 24.3150154,22.8261911 24.7895337,24.1790108 C24.7895337,24.1790108 24.7895337,24.1790108 24.7895337,24.2212864 C24.7895337,24.2212864 24.7895337,24.2635621 24.7895337,24.2635621 C25.0483619,25.8277599 24.7463957,27.0537528 23.9699112,28.0683676 Z M11.6755735,19.8246222 L11.2010552,18.4718025 C11.1147791,18.2181488 11.2441932,17.9644951 11.5030214,17.8799439 L12.538334,17.4994633 C12.5814721,17.4994633 12.6246101,17.4571877 12.7108861,17.4571877 C12.9265763,17.4571877 13.0991284,17.5840145 13.1422664,17.753117 L13.6599227,19.1059368 C13.7030608,19.2327636 13.7030608,19.3595905 13.6599227,19.4441417 C13.6167847,19.5709685 13.5305086,19.6555198 13.4010946,19.6977954 L12.3657819,20.0782759 C12.0638157,20.2051028 11.7618495,20.0782759 11.6755735,19.8246222 Z"></path>
                            <path d="M8,15.5151515 C8,13.8943723 6.67142857,12.6060606 5,12.6060606 C3.32857143,12.6060606 2,13.8943723 2,15.5151515 C2,17.1359307 3.32857143,18.4242424 5,18.4242424 C6.62857143,18.382684 8,17.0943723 8,15.5151515 Z M5,13.6450216 C6.07142857,13.6450216 6.92857143,14.4761905 6.92857143,15.5151515 C6.92857143,16.5541126 6.07142857,17.3852814 5,17.3852814 C3.92857143,17.3852814 3.07142857,16.5541126 3.07142857,15.5151515 C3.07142857,14.4761905 3.92857143,13.6450216 5,13.6450216 Z"></path>
                            <path d="M4.54080128,20.3636364 C2.06017836,20.3636364 0,22.396189 0,24.9368797 L0,29.5524679 C0,29.8488818 0.252266738,30.0606061 0.504533475,30.0606061 C0.798844669,30.0606061 1.00906695,29.806537 1.00906695,29.5524679 L1.00906695,24.9368797 C1.00906695,22.9890168 2.56471183,21.4222575 4.49875682,21.4222575 C6.43280181,21.4222575 7.98844669,22.9890168 7.98844669,24.9368797 L7.98844669,29.5524679 C7.98844669,29.8488818 8.24071343,30.0606061 8.49298017,30.0606061 C8.74524691,30.0606061 8.99751365,29.806537 8.99751365,29.5524679 L8.99751365,24.9368797 C9.08160256,22.396189 7.0214242,20.3636364 4.54080128,20.3636364 Z"></path>
                        </g>
                    </g>
                </g>
            </g>
        </g>
    </g>
</svg>