<svg xmlns="http://www.w3.org/2000/svg" width="45" height="37.174" viewBox="0 0 45 37.174" fill="currentColor"><g transform="translate(-0.5 -2.5)"><path class="a" d="M17.289,39.674a.978.978,0,1,1,0-1.957h4.733V10.2a3.931,3.931,0,0,1-2.935-3.784H9.819l6.165,14.142a.941.941,0,0,1,.168.532,7.826,7.826,0,0,1-15.652,0,.761.761,0,0,1,.008-.092.987.987,0,0,1,.074-.3L6.829,6.411H5.391a.977.977,0,1,1,0-1.955H19.617a3.9,3.9,0,0,1,6.766,0H40.609a.978.978,0,0,1,0,1.957H39.171l6.245,14.279a.457.457,0,0,1,.018.047.849.849,0,0,1,.057.256.507.507,0,0,1,.01.092,7.826,7.826,0,0,1-15.652,0,.943.943,0,0,1,.166-.53L36.179,6.413H26.913A3.931,3.931,0,0,1,23.978,10.2v27.52h4.68a.978.978,0,0,1,0,1.957Zm14.6-17.609a5.869,5.869,0,0,0,11.575,0Zm-29.348,0a5.869,5.869,0,0,0,11.575,0Zm40.486-1.957L37.676,7.878l-5.332,12.23Zm-29.369,0L8.324,7.878,2.975,20.109ZM23,4.457a1.957,1.957,0,1,0,1.957,1.957A1.96,1.96,0,0,0,23,4.457Z" transform="translate(0 0)"/></g></svg>
