<svg width="37.122" height="37.174" viewBox="0 0 37.122 37.174" fill="currentColor"><g transform="translate(0.003 -0.002)"><path class="a" d="M1.546,26.2A1.551,1.551,0,0,1,0,24.648V22.324A2.326,2.326,0,0,1,2.32,20H13.163a2.326,2.326,0,0,1,2.323,2.323v2.323A1.551,1.551,0,0,1,13.938,26.2ZM2.32,21.55a.775.775,0,0,0-.774.774v2.323H13.938V22.324a.775.775,0,0,0-.774-.774Z" transform="translate(0 10.979)"/><path class="a" d="M31.065,28.78a3.084,3.084,0,0,1-2.152-.867l-9.35-10.386-2.181,2.181A2.71,2.71,0,0,1,13.3,23.255L6.176,16.13a2.712,2.712,0,0,1,3.541-4.089l7.706-7.706A2.711,2.711,0,0,1,21.512.8L28.637,7.92A2.712,2.712,0,0,1,25.089,12l-2.179,2.179L33.256,23.5a3.095,3.095,0,0,1-2.192,5.285Zm-1.039-1.944a1.5,1.5,0,0,0,1.032.4,1.551,1.551,0,0,0,1.121-2.627L21.81,15.278l-1.151,1.151ZM8.092,13.051a1.161,1.161,0,0,0-.823,1.983l7.125,7.125a1.162,1.162,0,0,0,1.643-1.643L8.913,13.39A1.153,1.153,0,0,0,8.092,13.051Zm8.216,5.541,7.666-7.666L18.5,5.448,10.83,13.114Zm9.582-7.94a1.162,1.162,0,1,0,1.648-1.639L20.414,1.889a1.163,1.163,0,1,0-1.645,1.643l.274.273,6.574,6.572a.277.277,0,0,1,.02.022Z" transform="translate(2.957 0)"/></g></svg>
