<?xml version="1.0" encoding="UTF-8"?>
<svg width="26px" height="26px" viewBox="0 0 26 26" version="1.1" xmlns="http://www.w3.org/2000/svg" xmlns:xlink="http://www.w3.org/1999/xlink">
    <!-- Generator: Sketch 51.3 (57544) - http://www.bohemiancoding.com/sketch -->
    <title>login</title>
    <desc>Created with Sketch.</desc>
    <defs></defs>
    <g id="Symbols" stroke="none" stroke-width="1" fill="none" fill-rule="evenodd">
        <g id="header" transform="translate(-1154.000000, -27.000000)">
            <g id="Group-2">
                <g transform="translate(285.000000, 24.000000)">
                    <g id="login" transform="translate(870.000000, 4.000000)">
                        <circle id="Oval" stroke="#FFFFFF" cx="12" cy="12" r="12"></circle>
                        <path d="M22.1506736,12.2126875 C22.1110163,12.60807 22.0860322,13.0034525 22.0285292,13.3952766 C21.7112711,15.5655311 20.7824979,17.4380626 19.2560898,19.0168249 C19.236242,19.0350564 19.2153185,19.0520883 19.1934313,19.0678293 C18.1151503,15.8276697 15.8895846,13.9978395 12.4493168,13.5791295 C13.7651449,13.3869736 14.7966303,12.776503 15.4997536,11.6781304 C16.2088255,10.5710594 16.3500054,9.37344583 15.941139,8.12878173 C15.3177268,6.23094574 13.4677154,5.09422106 11.4317114,5.33263671 C9.57416509,5.55009708 8.02118659,7.1806545 7.85105693,9.03460303 C7.64682201,11.2534896 9.25690697,13.3415046 11.5110259,13.5834787 C8.11557088,13.9903272 5.89119489,15.8201574 4.7990338,19.0769231 C4.68839004,18.9606806 4.57100453,18.8452289 4.46194705,18.7210788 C2.86415584,16.9173439 1.99209258,14.8170721 1.87629337,12.4087973 C1.86981282,12.3424086 1.85975175,12.276416 1.84615385,12.211106 L1.84615385,11.7275532 C1.85986634,11.6622638 1.86992837,11.5962649 1.87629337,11.529862 C1.96750508,9.4916652 2.60757334,7.63890281 3.82703424,6.0036008 C5.52317547,3.72856992 7.79038131,2.37992022 10.6084266,1.9647686 C10.9887397,1.90862428 11.3734152,1.8856921 11.7565044,1.84615385 L12.2438922,1.84615385 C12.3027044,1.85962508 12.3623078,1.86939712 12.4223499,1.87541215 C14.2997248,1.95448865 16.031161,2.49695344 17.5861224,3.54471705 C20.0977491,5.23748132 21.5806665,7.58341747 22.0348744,10.5825255 C22.0919808,10.9605112 22.1141889,11.3440322 22.1538462,11.7247855 L22.1538462,12.2107106 L22.1506736,12.2126875 Z" id="Shape" fill="#FFFFFF" fill-rule="nonzero"></path>
                    </g>
                </g>
            </g>
        </g>
    </g>
</svg>