<?xml version="1.0" encoding="UTF-8"?>
<svg width="48px" height="48px" viewBox="0 0 48 48" version="1.1" xmlns="http://www.w3.org/2000/svg" xmlns:xlink="http://www.w3.org/1999/xlink">
    <!-- Generator: Sketch 51.3 (57544) - http://www.bohemiancoding.com/sketch -->
    <title>palvelut</title>
    <desc>Created with Sketch.</desc>
    <defs></defs>
    <g id="v7" stroke="none" stroke-width="1" fill="none" fill-rule="evenodd">
        <g id="Desktop-koti" transform="translate(-686.000000, -1770.000000)" fill="#003479" fill-rule="nonzero">
            <g id="digikehittäjille" transform="translate(496.000000, 1690.000000)">
                <g id="Group-18" transform="translate(153.000000, 56.000000)">
                    <g id="palvelut" transform="translate(37.000000, 24.000000)">
                        <path d="M26.1279468,0.00245780142 C25.8611105,0.0533695729 25.6696721,0.288974738 25.6744592,0.560569276 L25.6744592,3.47321406 C24.8063233,3.68194144 23.8834787,3.93652556 23.0233012,4.36269847 L21.0523746,2.39186924 C20.9472132,2.28318408 20.8024493,2.22181981 20.6512125,2.22181981 C20.4999758,2.22181981 20.3552119,2.28318408 20.2500505,2.39186924 L16.3430808,6.29864956 C16.1399411,6.50230524 16.1248393,6.82697886 16.3081972,7.04861029 L18.3488911,9.59498727 C17.9718965,10.284401 17.7055494,10.9629199 17.4942415,11.7227876 L14.5116888,11.7227876 C14.2034499,11.7228184 13.9535808,11.9726755 13.9535503,12.2808991 L13.9535503,17.8620083 C13.9535838,18.1702297 14.2034521,18.4200833 14.5116888,18.4201142 L17.4244742,18.4201142 C17.6313321,19.2805474 17.9116158,20.2008076 18.3314493,21.0537004 L16.3430808,23.0419603 C16.1280829,23.259412 16.1280829,23.6093643 16.3430808,23.8268159 L20.2500505,27.7335683 C20.3552119,27.8422535 20.4999758,27.9036178 20.6512125,27.9036178 C20.8024493,27.9036178 20.9472132,27.8422535 21.0523746,27.7335683 L23.0233012,25.7627782 C23.8837951,26.189085 24.8060671,26.4608989 25.6744592,26.6696989 L25.6744592,29.5823492 C25.6745051,29.8905619 25.9243697,30.140402 26.2325977,30.1404328 L29.0232903,30.1404328 L31.8139829,30.1404328 C32.1222109,30.140402 32.3720756,29.8905619 32.3721215,29.5823492 L32.3721215,26.6696989 C33.2405135,26.4608989 34.1627855,26.189085 35.0232794,25.7627782 L36.9942061,27.7335683 C37.0993675,27.8422535 37.2441314,27.9036178 37.3953681,27.9036178 C37.5466049,27.9036178 37.6913688,27.8422535 37.7965302,27.7335683 L41.7034998,23.8268159 C41.9184977,23.6093643 41.9184977,23.259412 41.7034998,23.0419603 L39.7151313,21.0537004 C40.1349648,20.2008076 40.4152486,19.2805474 40.6221064,18.4201142 L43.5348918,18.4201142 C43.8431286,18.4200833 44.0929968,18.1702297 44.0930304,17.8620083 L44.0930304,12.2808991 C44.0929999,11.9726755 43.8431307,11.7228184 43.5348918,11.7227876 L40.5523391,11.7227876 C40.3410312,10.9629199 40.0746842,10.284401 39.6976895,9.59498727 L41.7383835,7.04861029 C41.9217414,6.82697886 41.9066395,6.50230524 41.7034998,6.29864956 L37.7965302,2.39186924 C37.6913688,2.28318408 37.5466049,2.22181981 37.3953681,2.22181981 C37.2441314,2.22181981 37.0993675,2.28318408 36.9942061,2.39186924 L35.0232794,4.36269847 C34.163102,3.93652556 33.2402574,3.68194144 32.3721215,3.47321406 L32.3721215,0.560569276 C32.372091,0.252345694 32.1222218,0.0024886192 31.8139829,0.00245780142 L29.0232903,0.00245780142 L26.2325977,0.00245780142 C26.1977911,-0.000819267141 26.1627534,-0.000819267141 26.1279468,0.00245780142 Z M26.7907363,1.11868075 L29.0232903,1.11868075 L31.2558444,1.11868075 L31.2558444,3.90923813 C31.2557359,4.16383363 31.4279299,4.38623979 31.6744483,4.44990775 C32.7983144,4.72966395 34.055499,4.99835783 34.8837448,5.49636327 C35.1037186,5.62642554 35.3839277,5.59050354 35.5639761,5.40915958 L37.3953681,3.57785961 L40.5523391,6.73467363 L38.633738,9.14152693 C38.4940973,9.32373253 38.4802568,9.57284875 38.5988543,9.76940024 C39.1464942,10.6800772 39.3762107,11.3218259 39.645364,12.4029865 C39.7021954,12.6564179 39.9263296,12.8371624 40.1860607,12.8390106 L42.9767533,12.8390106 L42.9767533,17.3038968 L40.1860607,17.3038968 C39.9314528,17.3037881 39.7090355,17.4759731 39.645364,17.722479 C39.3655932,18.8463038 39.0968841,20.0860207 38.5988543,20.9141767 C38.4642543,21.1302844 38.4929532,21.4100833 38.6686216,21.59437 L40.5000136,23.4430951 L37.3953681,26.547578 L35.5639761,24.7163227 C35.3839359,24.5349677 35.103726,24.4990318 34.8837448,24.6290855 C34.0554795,25.1270574 32.7983043,25.4132713 31.6744483,25.6930108 C31.4279299,25.7566787 31.2557359,25.9790849 31.2558444,26.2336804 L31.2558444,29.0242099 L29.0232903,29.0242099 L26.7907363,29.0242099 L26.7907363,26.2336804 C26.7908448,25.9790849 26.6186507,25.7566787 26.3721324,25.6930108 C25.2482764,25.4132713 23.9911012,25.1270574 23.1628359,24.6290855 C22.9428547,24.4990318 22.6626447,24.5349677 22.4826046,24.7163227 L20.6512125,26.547578 L17.546567,23.4430951 L19.377959,21.59437 C19.5536274,21.4100833 19.5823264,21.1302844 19.4477264,20.9141767 C18.9496966,20.0860207 18.6809875,18.8463038 18.4012166,17.722479 C18.3375452,17.4759731 18.1151279,17.3037881 17.8605199,17.3038968 L15.0698273,17.3038968 L15.0698273,12.8390106 L17.8605199,12.8390106 C18.1202511,12.8371624 18.3443853,12.6564179 18.4012166,12.4029865 C18.67037,11.3218259 18.9000864,10.6800772 19.4477264,9.76940024 C19.5663239,9.57284875 19.5524834,9.32373253 19.4128427,9.14152693 L17.4942415,6.73467363 L20.6512125,3.57785961 L22.4826046,5.40915958 C22.662653,5.59050354 22.9428621,5.62642554 23.1628359,5.49636327 C23.9910816,4.99835783 25.2482663,4.72966395 26.3721324,4.44990775 C26.6186507,4.38623979 26.7908448,4.16383363 26.7907363,3.90923813 L26.7907363,1.11868075 Z M29.0232903,8.93223024 C25.6391357,8.93223024 22.8837666,11.6874686 22.8837666,15.0714509 C22.8837666,18.4554332 25.6391357,21.2106715 29.0232903,21.2106715 C32.4074449,21.2106715 35.162814,18.4554332 35.162814,15.0714509 C35.162814,11.6874686 32.4074449,8.93223024 29.0232903,8.93223024 Z M29.0232903,10.0484532 C31.8041636,10.0484532 34.046537,12.2907223 34.046537,15.0714509 C34.046537,17.852185 31.8041636,20.0944486 29.0232903,20.0944486 C26.2424171,20.0944486 24.0000437,17.852185 24.0000437,15.0714509 C24.0000437,12.2907223 26.2424171,10.0484532 29.0232903,10.0484532 Z" id="Shape"></path>
                        <path d="M0.453574863,26.184276 C0.186749193,26.235186 -0.00468610781,26.4707755 8.73156249e-05,26.7423596 L8.73156249e-05,42.3694809 C0.000133176171,42.6776935 0.249997846,42.9275336 0.558225835,42.9275644 L7.81402659,42.9275644 C8.12225458,42.9275336 8.37211925,42.6776935 8.37216511,42.3694809 L8.37216511,42.2997134 C12.8425281,45.3587079 16.0337075,47.9505398 24.0000437,47.9505956 C28.3845583,47.9505956 33.7166905,45.665852 38.0058321,43.4159364 C42.2949737,41.1660207 45.5232603,38.9161609 45.5232603,38.9161609 C46.372376,38.3501517 46.9821529,37.9063193 47.4069778,37.3116218 C47.8318027,36.7168684 48,36.0132221 48,35.1140596 C48,34.4163854 47.7162647,33.8249809 47.3023269,33.4222833 C46.888389,33.0194741 46.3619706,32.7760695 45.8546551,32.6199579 C44.840024,32.3078464 43.8139611,32.3234743 43.5348918,32.3234743 C42.3257121,32.3234743 40.9237094,32.9197904 39.750015,33.4920507 C38.6765176,34.0153064 37.9701392,34.4354737 37.8314138,34.5210365 C37.5422507,32.9670648 36.2408815,31.7653907 34.6046755,31.7653907 L24.2093456,31.7653907 C22.6750077,30.3401818 20.3770041,29.5241262 17.6163343,29.0445729 C14.9008051,28.5728893 11.7238009,28.4303405 8.37216511,28.4167219 L8.37216511,26.7423596 C8.37211925,26.4341469 8.12225458,26.1843068 7.81402659,26.184276 L0.558225835,26.184276 C0.52341915,26.1809989 0.488381548,26.1809989 0.453574863,26.184276 Z M1.11636435,27.3004989 L7.25588807,27.3004989 L7.25588807,28.9225078 C7.25506566,28.9399865 7.25506566,28.9574942 7.25588807,28.9749729 L7.25588807,41.2534253 C7.25443316,41.2766584 7.25443316,41.2999597 7.25588807,41.3231928 L7.25588807,41.8115089 L1.11636435,41.8115089 L1.11636435,27.3006664 L1.11636435,27.3004989 Z M8.37216511,29.5503588 C11.6865234,29.5654285 14.8200073,29.6909541 17.4244742,30.1433819 C20.1799522,30.6219306 22.3390033,31.4473629 23.5988816,32.7071951 C23.7033019,32.8174895 23.848161,32.8804718 24.0000437,32.8816137 L34.6046755,32.8816137 C35.8511512,32.8816137 36.8372296,33.8676227 36.8372296,35.1140596 C36.8372296,36.3604406 35.8511646,37.3465055 34.6046755,37.3465055 L18.4186585,37.3465055 C18.2173847,37.3436762 18.0301774,37.4494285 17.9287149,37.6232718 C17.8272523,37.797115 17.8272523,38.0121189 17.9287149,38.1859622 C18.0301774,38.3598054 18.2173847,38.4655577 18.4186585,38.4627284 L34.6046755,38.4627284 C36.2573293,38.4627284 37.5787702,37.2318078 37.8488557,35.6547292 C37.9865914,35.6828127 38.1298524,35.6578977 38.2500177,35.5849618 C38.2500177,35.5849618 39.1223369,35.030227 40.2383862,34.4861528 C41.3544355,33.9421343 42.7402985,33.4396973 43.5348918,33.4396973 C43.8139611,33.4396973 44.7413803,33.4396973 45.5407021,33.6838832 C45.9403634,33.8068413 46.2860336,33.9993994 46.5174446,34.2245529 C46.7488555,34.4497621 46.883723,34.695455 46.883723,35.1140596 C46.883723,35.8892036 46.772851,36.2843662 46.5000027,36.666301 C46.2271545,37.0482358 45.7206544,37.4416682 44.8953545,37.9917704 C44.8953545,37.9917704 41.7050537,40.2068024 37.4825773,42.4217785 C33.2601009,44.6366988 27.9876626,46.8343727 24.0000437,46.8343727 C15.8996576,46.8343168 13.2592109,44.2460571 8.37216511,40.9567743 L8.37216511,29.5503588 Z" id="Shape-Copy"></path>
                    </g>
                </g>
            </g>
        </g>
    </g>
</svg>