<?xml version="1.0" encoding="UTF-8"?>
<svg width="42px" height="42px" viewBox="0 0 42 42" version="1.1" xmlns="http://www.w3.org/2000/svg" xmlns:xlink="http://www.w3.org/1999/xlink">
    <!-- Generator: Sketch 51.3 (57544) - http://www.bohemiancoding.com/sketch -->
    <title>Group 2</title>
    <desc>Created with Sketch.</desc>
    <defs></defs>
    <g id="v7" stroke="none" stroke-width="1" fill="none" fill-rule="evenodd" opacity="0.650111607">
        <g id="menu" transform="translate(-15.000000, -149.000000)">
            <g id="profile" transform="translate(0.000000, 150.000000)">
                <g id="Group-2" transform="translate(16.000000, 0.000000)">
                    <g id="Group" fill="#FFFFFF" stroke="#003479">
                        <ellipse id="Oval" cx="19.7959184" cy="20" rx="19.7959184" ry="20"></ellipse>
                    </g>
                    <path d="M36.5410772,20.3544792 C36.4756562,21.0134501 36.4344409,21.6724209 36.3395805,22.325461 C35.8162125,25.9425519 34.2840527,29.0634377 31.7659985,31.6947082 C31.7332564,31.725094 31.6987398,31.7534804 31.6626333,31.7797155 C29.8838363,26.3794495 26.2124099,23.3297325 20.5371383,22.6318824 C22.707807,22.3116226 24.4094072,21.2941716 25.5693215,19.4635507 C26.7390489,17.6184324 26.9719477,15.6224097 26.2974572,13.5479695 C25.2690391,10.3849096 22.2171495,8.49036844 18.8584355,8.88772785 C15.7941159,9.2501618 13.2322296,11.9677575 12.9515735,15.0576717 C12.6146554,18.755816 15.2707479,22.235841 18.9892775,22.6391311 C13.3879316,23.3172121 9.71846775,26.3669291 7.91677345,31.7948718 C7.73424887,31.6011344 7.54060271,31.4087149 7.36069497,31.201798 C4.72488294,28.1955731 3.28627518,24.6951201 3.09524586,20.6813288 C3.08455515,20.5706811 3.06795781,20.4606934 3.0455259,20.3518434 L3.0455259,19.545922 C3.06814685,19.4371063 3.08474577,19.3271081 3.09524586,19.2164366 C3.24571416,15.819442 4.30160907,12.7315047 6.31330478,10.0060013 C9.11136089,6.21428319 12.8514794,3.9665337 17.5002955,3.27461433 C18.1276829,3.18104047 18.7622666,3.14282016 19.3942334,3.07692308 L20.1982575,3.07692308 C20.2952777,3.09937514 20.3936031,3.11566187 20.492652,3.12568692 C23.5896821,3.25748108 26.4459629,4.16158906 29.0111202,5.90786176 C33.1544501,8.72913553 35.6007593,12.6390291 36.3500478,17.6375425 C36.4442541,18.2675186 36.4808898,18.9067203 36.5463108,19.5413092 L36.5463108,20.3511844 L36.5410772,20.3544792 Z" id="Shape" fill="#003479" fill-rule="nonzero"></path>
                </g>
            </g>
        </g>
    </g>
</svg>