<svg fill="currentColor" width="33.122" height="33.122" viewBox="0 0 33.122 33.122">
  <path d="M10.336,27.368a1.027,1.027,0,0,1-.5-.13,19.1,19.1,0,0,0-7.123-2.28A3.108,3.108,0,0,1,0,21.885V3.118a3.051,3.051,0,0,1,.032-.449A3.1,3.1,0,0,1,3.544.035,23.027,23.027,0,0,1,14.9,5.2a1.029,1.029,0,0,0,.595.2h.069a1.058,1.058,0,0,0,.617-.226A22.954,22.954,0,0,1,27.495.038,3.415,3.415,0,0,1,27.949,0a3.105,3.105,0,0,1,3.1,3.119V13.461a1.035,1.035,0,0,1-2.07,0V3.118A1.034,1.034,0,0,0,27.95,2.073h0a1.013,1.013,0,0,0-.15.011,20.94,20.94,0,0,0-10.315,4.7,3.152,3.152,0,0,1-.925.5v3.064a1.035,1.035,0,0,1-2.07,0V7.29a3.061,3.061,0,0,1-.892-.48A20.983,20.983,0,0,0,3.241,2.083a1.065,1.065,0,0,0-.138-.01,1.039,1.039,0,0,0-1.023.889,1.107,1.107,0,0,0-.011.152V21.888A1.027,1.027,0,0,0,2.96,22.9a21.108,21.108,0,0,1,7.876,2.524,1.034,1.034,0,0,1-.5,1.939Z" transform="translate(0 0)"/>
  <path d="M9.949,9.19a1.033,1.033,0,0,1-.552-.16,19.556,19.556,0,0,0-4.865-2.2,1.034,1.034,0,1,1,.589-1.983A21.587,21.587,0,0,1,10.5,7.279a1.035,1.035,0,0,1,.323,1.427A1.024,1.024,0,0,1,9.949,9.19Z" transform="translate(1.441 1.823)"/>
  <path d="M10.255,13.014a1.028,1.028,0,0,1-.614-.2A13.3,13.3,0,0,0,3.86,10.39a1.035,1.035,0,0,1,.161-2.056,1.079,1.079,0,0,1,.163.012,15.364,15.364,0,0,1,6.684,2.8,1.036,1.036,0,0,1-.614,1.869Z" transform="translate(1.136 3.167)"/>
  <path d="M14.532,9.19a1.033,1.033,0,0,1-.876-.483,1.037,1.037,0,0,1,.323-1.428A21.578,21.578,0,0,1,19.359,4.84a1.052,1.052,0,0,1,.294-.043,1.04,1.04,0,0,1,.992.741,1.035,1.035,0,0,1-.7,1.286,19.5,19.5,0,0,0-4.864,2.2A1.01,1.01,0,0,1,14.532,9.19Z" transform="translate(5.13 1.822)"/>
  <path d="M28.665,29.7a1.025,1.025,0,0,1-.731-.3l-3.808-3.808a9.33,9.33,0,1,1,1.464-1.464L29.4,27.936a1.036,1.036,0,0,1-.733,1.768ZM18.315,11.071a7.246,7.246,0,1,0,7.246,7.246A7.254,7.254,0,0,0,18.315,11.071Z" transform="translate(3.421 3.421)"/>
  <path d="M16.6,19.713a1.035,1.035,0,0,1-1.035-1.035V15.572H14.534a1.035,1.035,0,0,1,0-2.07h4.14a1.035,1.035,0,1,1,0,2.07H17.639v3.105A1.036,1.036,0,0,1,16.6,19.713Z" transform="translate(5.131 5.131)"/>
</svg>
