<?xml version="1.0" encoding="UTF-8"?>
<svg width="27px" height="32px" viewBox="0 0 27 32" version="1.1" xmlns="http://www.w3.org/2000/svg" xmlns:xlink="http://www.w3.org/1999/xlink">
    <!-- Generator: Sketch 51.3 (57544) - http://www.bohemiancoding.com/sketch -->
    <title>noun_Accessibility_1035184_000000 (2)</title>
    <desc>Created with Sketch.</desc>
    <defs></defs>
    <g id="v7" stroke="none" stroke-width="1" fill="none" fill-rule="evenodd">
        <g id="Desktop-kehittäminen" transform="translate(-530.000000, -1542.000000)" fill="#003479" fill-rule="nonzero">
            <g id="lait-ja-säädökset-copy" transform="translate(496.000000, 1470.000000)">
                <g id="item" transform="translate(16.000000, 56.000000)">
                    <g id="noun_Accessibility_1035184_000000-(2)" transform="translate(18.000000, 16.000000)">
                        <path d="M16.9511738,3.326952 C16.9510723,1.5843173 15.4058842,0.171699291 13.4998775,0.171761145 C11.5938708,0.171822999 10.0487924,1.58454129 10.0488263,3.327176 C10.0488601,5.0698107 11.5939933,6.48247885 13.5,6.48247886 C15.4051566,6.48039298 16.9489938,5.06880953 16.9511738,3.326952 Z M11.54883,3.326952 C11.5489315,2.34173594 12.4225474,1.54312723 13.5001275,1.54318972 C14.5777076,1.5432522 15.4512127,2.34196221 15.4511775,3.32717828 C15.4511423,4.31239435 14.5775801,5.11105217 13.5,5.11105029 C12.4228523,5.1098882 11.5499975,4.31177287 11.54883,3.326952 Z" id="Shape"></path>
                        <path d="M14.8447275,31.1293543 C15.4749267,31.7020177 16.4199693,31.871992 17.2404604,31.560248 C18.0609515,31.248504 18.5958899,30.5162138 18.5965575,29.7038537 L18.5965575,11.0492743 L24.80127,11.0492743 C26.0145245,11.0478257 26.9972222,10.1481851 26.9972222,9.03892286 C26.9972222,7.92966061 26.0145245,7.03002005 24.80127,7.02857143 L2.19873,7.02857143 C0.985475454,7.03002005 0.00277776276,7.92966061 0.00277776276,9.03892286 C0.00277776276,10.1481851 0.985475454,11.0478257 2.19873,11.0492743 L8.4034425,11.0492743 L8.4034425,29.7038503 C8.40344248,30.4221097 8.82255306,31.0858088 9.50289936,31.4449385 C10.1832456,31.8040682 11.0214669,31.8040682 11.7018131,31.4449385 C12.3821594,31.0858088 12.80127,30.4221097 12.80127,29.7038503 L12.80127,20.0571429 L14.19873,20.0571429 L14.19873,29.7038503 C14.1968011,30.2388994 14.4294771,30.7523386 14.8447275,31.1293543 Z M12.05127,18.6857143 C11.637065,18.6857332 11.3012907,18.9927269 11.30127,19.3714286 L11.30127,29.7038503 C11.3020898,29.9326441 11.1690571,30.1443797 10.9524757,30.2589935 C10.7358943,30.3736073 10.4688182,30.3736073 10.2522368,30.2589935 C10.0356554,30.1443797 9.90262275,29.9326441 9.9034425,29.7038503 L9.9034425,10.36356 C9.90342179,9.9848583 9.56764748,9.67786465 9.1534425,9.67784571 L2.19873,9.67784571 C1.94839705,9.67876403 1.71664892,9.55718726 1.5911916,9.35912661 C1.46573428,9.16106595 1.46573428,8.91677976 1.5911916,8.71871911 C1.71664892,8.52065845 1.94839705,8.39908168 2.19873,8.4 L24.80127,8.4 C25.0516029,8.39908168 25.2833511,8.52065845 25.4088084,8.71871911 C25.5342657,8.91677976 25.5342657,9.16106595 25.4088084,9.35912661 C25.2833511,9.55718726 25.0516029,9.67876403 24.80127,9.67784571 L17.8465575,9.67784571 C17.4323525,9.67786465 17.0965782,9.9848583 17.0965575,10.36356 L17.0965575,29.7038503 C17.0973773,29.9326441 16.9643446,30.1443797 16.7477632,30.2589935 C16.5311818,30.3736073 16.2641057,30.3736073 16.0475243,30.2589935 C15.8309429,30.1443797 15.6979102,29.9326441 15.69873,29.7038503 L15.69873,19.3714286 C15.6987093,18.9927269 15.362935,18.6857332 14.94873,18.6857143 L12.05127,18.6857143 Z" id="Shape"></path>
                    </g>
                </g>
            </g>
        </g>
    </g>
</svg>