<?xml version="1.0" encoding="UTF-8"?>
<svg width="32px" height="31px" viewBox="0 0 32 31" version="1.1" xmlns="http://www.w3.org/2000/svg" xmlns:xlink="http://www.w3.org/1999/xlink">
    <!-- Generator: Sketch 51.3 (57544) - http://www.bohemiancoding.com/sketch -->
    <title>noun_Book_1517234_000000</title>
    <desc>Created with Sketch.</desc>
    <defs></defs>
    <g id="v7" stroke="none" stroke-width="1" fill="none" fill-rule="evenodd">
        <g id="Desktop-kehittäminen" transform="translate(-528.000000, -1054.000000)" fill="#003479" fill-rule="nonzero">
            <g id="toimintamallit" transform="translate(496.000000, 982.000000)">
                <g id="item" transform="translate(16.000000, 56.000000)">
                    <g id="noun_Book_1517234_000000" transform="translate(16.000000, 16.000000)">
                        <path d="M0.649846154,30.7892446 C1.04861538,31.010086 1.53723077,30.9859711 1.91261538,30.7257844 C5.98523077,27.9271906 11.2443077,27.9271906 15.3169231,30.7257844 C15.3329231,30.7372072 15.3513846,30.7397457 15.3673846,30.7498993 C15.3858462,30.7613221 15.3993846,30.7778218 15.4190769,30.7879754 C15.4609231,30.810821 15.5064615,30.8209747 15.5507692,30.8387435 C15.5963077,30.8577816 15.6406154,30.8780888 15.6886154,30.8907809 C15.7575385,30.9098189 15.8264615,30.9161649 15.8966154,30.922511 C15.9323077,30.9250494 15.9655385,30.9377414 16.0012308,30.9377414 C16.0110769,30.9377414 16.0209231,30.9339338 16.032,30.9339338 C16.0750769,30.9326646 16.1156923,30.9237802 16.1575385,30.9187033 C16.2203077,30.9110881 16.2806154,30.9022037 16.3421538,30.8831656 C16.3852308,30.8704736 16.4258462,30.8514356 16.4676923,30.8336667 C16.5058462,30.8171671 16.5464615,30.8082826 16.5833846,30.7879754 C16.6018462,30.7778218 16.6141538,30.7625913 16.6313846,30.7511685 C16.6486154,30.7410149 16.6683077,30.735938 16.6855385,30.7245152 C20.7581538,27.9259214 26.0172308,27.9259214 30.0898462,30.7245152 C30.2953846,30.866666 30.5329231,30.9377414 30.7729231,30.9377414 C30.9723077,30.9377414 31.1716923,30.8882425 31.3538462,30.7879754 C31.7501538,30.567134 32,30.1381432 32,29.6698071 L32,4.51800091 C32,4.09408694 31.7944615,3.69809544 31.4523077,3.46202358 C26.7741538,0.247131067 20.7963077,0.10751868 16,3.02922518 C11.2036923,0.10751868 5.22584615,0.247131067 0.547692308,3.46202358 C0.205538462,3.69809544 0,4.09408694 0,4.51800091 L0,29.6698071 C0,30.1381432 0.249846154,30.567134 0.649846154,30.7892446 Z M31,4.53441906 L31,28.3049348 C28.781,27.2989831 26.3898,26.7966842 24,26.7966842 C21.6102,26.7966842 19.219,27.300337 17,28.3049348 L17,4.53441906 C21.326,2.05541841 26.674,2.05541841 31,4.53441906 Z M1.5914013,4.53441906 C5.9174013,2.05541841 11.2654013,2.05541841 15.5914013,4.53441906 L15.5914013,28.3049348 C13.3724013,27.2989831 10.9812013,26.7966842 8.5914013,26.7966842 C6.2016013,26.7966842 3.8104013,27.300337 1.5914013,28.3049348 L1.5914013,4.53441906 Z" id="Shape"></path>
                    </g>
                </g>
            </g>
        </g>
    </g>
</svg>