<svg x="0px" y="0px" viewBox="0 0 25 25" fill="currentColor">
  <path d="M17.1,3c-0.9-0.5-2.2-1.1-4-1.1c-2,0-3.5,1-3.5,2.5c0,1.7,1.7,2.4,4.2,3.2c3.1,1,5.5,2.3,5.5,5.3c0,1.7-0.8,3-2.2,4.1
		c0.6,0.5,1.3,1.6,1.3,3c0,3.5-3.3,5-6.4,5c-2,0-4-0.5-5.3-1.4l0.8-1.9c0.8,0.6,2.5,1.4,4.4,1.4c2.1,0,3.8-1,3.8-2.8
		c0-1.6-1-2.4-4.1-3.5c-3.5-1.2-5.8-2.4-5.8-5.3c0-1.3,0.7-2.8,2.4-3.9C7.5,7,7,5.9,7,4.8C7,1.8,9.7,0,13.2,0c1.9,0,3.5,0.5,4.6,1.1
		L17.1,3z M11.7,14.3c1.7,0.6,3.1,1.1,3.8,1.6c0.8-0.6,1.3-1.5,1.3-2.6c0-1.3-0.8-2.3-3-3.1c-1.3-0.5-3.1-1.1-4.1-1.7
		c-1.1,0.8-1.5,1.6-1.5,2.6C8.1,12.3,9,13.4,11.7,14.3z"/>
</svg>
