<?xml version="1.0" encoding="UTF-8"?>
<svg width="43px" height="43px" viewBox="0 0 43 43" version="1.1" xmlns="http://www.w3.org/2000/svg" xmlns:xlink="http://www.w3.org/1999/xlink">
    <!-- Generator: Sketch 51.3 (57544) - http://www.bohemiancoding.com/sketch -->
    <title>tyokalut</title>
    <desc>Created with Sketch.</desc>
    <defs></defs>
    <g id="v7" stroke="none" stroke-width="1" fill="none" fill-rule="evenodd">
        <g id="Desktop-koti" transform="translate(-825.000000, -1770.000000)" fill="#003479" fill-rule="nonzero">
            <g id="digikehittäjille" transform="translate(496.000000, 1690.000000)">
                <g id="Group-19" transform="translate(290.000000, 56.000000)">
                    <g id="tyokalut" transform="translate(39.000000, 24.000000)">
                        <path d="M22.6583125,17.2833125 L19.3374583,20.6041667 L8.51041667,20.6041667 C3.81804167,20.6041667 0,24.4222083 0,29.1145833 C0,33.8069583 3.81804167,37.625 8.51041667,37.625 L10.8216667,37.625 C11.2588333,40.6591875 13.8683958,43 17.0208333,43 C20.1732708,43 22.7828333,40.6591875 23.22,37.625 L30.53,37.625 C30.9671667,40.6591875 33.5767292,43 36.7291667,43 C40.1861875,43 43,40.1870833 43,36.7291667 C43,33.27125 40.1861875,30.4583333 36.7291667,30.4583333 C33.5767292,30.4583333 30.9671667,32.7991458 30.53,35.8333333 L23.22,35.8333333 C22.7828333,32.7991458 20.1732708,30.4583333 17.0208333,30.4583333 C13.8683958,30.4583333 11.2588333,32.7991458 10.8216667,35.8333333 L8.51041667,35.8333333 C4.80525,35.8333333 1.79166667,32.81975 1.79166667,29.1145833 C1.79166667,25.4094167 4.80525,22.3958333 8.51041667,22.3958333 L19.3374583,22.3958333 L22.6583125,25.7166875 L23.9250208,24.4499792 L21.870875,22.3958333 L34.4895833,22.3958333 C39.1819583,22.3958333 43,18.5777917 43,13.8854167 C43,9.19304167 39.1819583,5.375 34.4895833,5.375 L32.1783333,5.375 C31.7411667,2.3408125 29.1316042,0 25.9791667,0 C22.8267292,0 20.2171667,2.3408125 19.78,5.375 L12.47,5.375 C12.0328333,2.3408125 9.42327083,0 6.27083333,0 C2.8138125,0 0,2.81291667 0,6.27083333 C0,9.72875 2.8138125,12.5416667 6.27083333,12.5416667 C9.42327083,12.5416667 12.0328333,10.2008542 12.47,7.16666667 L19.78,7.16666667 C20.2171667,10.2008542 22.8267292,12.5416667 25.9791667,12.5416667 C29.1316042,12.5416667 31.7411667,10.2008542 32.1783333,7.16666667 L34.4895833,7.16666667 C38.19475,7.16666667 41.2083333,10.18025 41.2083333,13.8854167 C41.2083333,17.5905833 38.19475,20.6041667 34.4895833,20.6041667 L21.870875,20.6041667 L23.9250208,18.5500208 L22.6583125,17.2833125 Z M36.7291667,32.25 C39.1989792,32.25 41.2083333,34.2593542 41.2083333,36.7291667 C41.2083333,39.1989792 39.1989792,41.2083333 36.7291667,41.2083333 C34.2593542,41.2083333 32.25,39.1989792 32.25,36.7291667 C32.25,34.2593542 34.2593542,32.25 36.7291667,32.25 Z M17.0208333,32.25 C19.4906458,32.25 21.5,34.2593542 21.5,36.7291667 C21.5,39.1989792 19.4906458,41.2083333 17.0208333,41.2083333 C14.5510208,41.2083333 12.5416667,39.1989792 12.5416667,36.7291667 C12.5416667,34.2593542 14.5510208,32.25 17.0208333,32.25 Z M6.27083333,10.75 C3.80102083,10.75 1.79166667,8.74064583 1.79166667,6.27083333 C1.79166667,3.80102083 3.80102083,1.79166667 6.27083333,1.79166667 C8.74064583,1.79166667 10.75,3.80102083 10.75,6.27083333 C10.75,8.74064583 8.74064583,10.75 6.27083333,10.75 Z M25.9791667,10.75 C23.5093542,10.75 21.5,8.74064583 21.5,6.27083333 C21.5,3.80102083 23.5093542,1.79166667 25.9791667,1.79166667 C28.4489792,1.79166667 30.4583333,3.80102083 30.4583333,6.27083333 C30.4583333,8.74064583 28.4489792,10.75 25.9791667,10.75 Z" id="Shape"></path>
                    </g>
                </g>
            </g>
        </g>
    </g>
</svg>