<svg xmlns="http://www.w3.org/2000/svg" width="23" height="26.286" viewBox="0 0 23 26.286">
  <path id="user" d="M16.1,15.607c-1.473,0-2.182.821-4.6.821s-3.121-.821-4.6-.821a6.9,6.9,0,0,0-6.9,6.9v1.314a2.465,2.465,0,0,0,2.464,2.464H20.536A2.465,2.465,0,0,0,23,23.821V22.507A6.9,6.9,0,0,0,16.1,15.607Zm4.436,8.214H2.464V22.507A4.443,4.443,0,0,1,6.9,18.071c.75,0,1.966.821,4.6.821,2.654,0,3.845-.821,4.6-.821a4.443,4.443,0,0,1,4.436,4.436ZM11.5,14.786A7.393,7.393,0,1,0,4.107,7.393,7.395,7.395,0,0,0,11.5,14.786Zm0-12.321A4.929,4.929,0,1,1,6.571,7.393,4.936,4.936,0,0,1,11.5,2.464Z" fill="#2a6ebb"/>
</svg>
