<?xml version="1.0" encoding="UTF-8"?>
<svg width="32px" height="32px" viewBox="0 0 32 32" version="1.1" xmlns="http://www.w3.org/2000/svg" xmlns:xlink="http://www.w3.org/1999/xlink">
    <!-- Generator: Sketch 51.3 (57544) - http://www.bohemiancoding.com/sketch -->
    <title>noun_agile_1546896_000000</title>
    <desc>Created with Sketch.</desc>
    <defs></defs>
    <g id="v7" stroke="none" stroke-width="1" fill="none" fill-rule="evenodd">
        <g id="Desktop-kehittäminen" transform="translate(-872.000000, -1054.000000)" fill="#003479" fill-rule="nonzero">
            <g id="toimintamallit" transform="translate(496.000000, 982.000000)">
                <g id="item-copy" transform="translate(360.000000, 56.000000)">
                    <g id="noun_agile_1546896_000000" transform="translate(16.000000, 16.000000)">
                        <path d="M12.6647525,6.15700043 C13.0514568,5.97778601 13.2314369,5.49386787 13.06772,5.07387084 C12.9032803,4.65505028 12.4573055,4.45897324 12.0702398,4.63740334 C7.72867083,6.63856564 4.92307692,11.2389252 4.92307692,16.3577125 C4.92307692,19.7576884 6.14354461,22.9545285 8.35932411,25.3572566 C8.50750052,25.5188241 8.7022983,25.6 8.89637326,25.6 C9.09117103,25.6 9.2859688,25.5188241 9.43414522,25.3572566 C9.73122086,25.0356903 9.73122086,24.513341 9.43414522,24.1913825 C7.5056834,22.0988483 6.44423431,19.3169072 6.44423431,16.3573204 C6.44423431,11.9020578 8.88553108,7.89777241 12.6647525,6.15700043 Z" id="Shape"></path>
                        <path d="M28.0557969,31.7531639 C28.1942107,31.9177213 28.3752907,32 28.5556989,32 C28.736779,32 28.9178591,31.9177213 29.0556009,31.7531639 L31.7922954,28.482887 C32.0691228,28.1537723 32.0691228,27.6191615 31.7929673,27.2888426 L29.0556009,24.0185658 C28.7801173,23.6886483 28.3326244,23.689451 28.0561329,24.0185658 C27.7799774,24.3484832 27.7799774,24.8822913 28.055461,25.2126101 L29.5507995,26.9998638 L24.5017224,26.9998638 C24.111342,26.9998638 23.7948718,27.3775431 23.7948718,27.8443241 C23.7948718,28.3111052 24.111006,28.6887844 24.5017224,28.6887844 L29.622022,28.6887844 L28.0557969,30.5591195 C27.7799774,30.8886357 27.7799774,31.4232465 28.0557969,31.7531639 Z" id="Shape"></path>
                        <path d="M0.741693057,31.0857143 L5.58807906,31.0857143 C5.99770231,31.0857143 6.33012463,30.7197873 6.33012463,30.267531 L6.33012463,28.4126193 L15.8466388,28.4126193 C20.9637568,28.4126193 25.431541,24.672853 26.8345535,19.2811653 C28.4374424,19.0525095 29.7681892,17.7774035 30.1573666,16.0068767 C30.2536034,15.5678421 30.00931,15.1249187 29.6113198,15.0183682 C29.2133295,14.9129844 28.8118141,15.1816938 28.7155773,15.6203396 C28.4476654,16.8406148 27.4644991,17.691852 26.3244633,17.691852 C24.9679828,17.691852 23.8642561,16.4742989 23.8642561,14.9779257 C23.8642561,13.4815525 24.9679828,12.2639994 26.3244633,12.2639994 C26.957229,12.2639994 27.5617934,12.5397085 28.0147761,13.0137415 L26.8176327,14.3308454 L26.5317425,13.8886998 C26.2934419,13.5212173 25.8309413,13.4360547 25.4967564,13.6981533 C25.163629,13.9610297 25.085723,14.4712276 25.3240237,14.8398767 L26.1178891,16.0675405 C26.2437372,16.2635312 26.4422035,16.3879697 26.6597057,16.4078021 C26.6805041,16.4093576 26.700245,16.410913 26.7210434,16.410913 C26.9173947,16.410913 27.1052856,16.3249727 27.2448818,16.1717578 L30.9611024,12.0862856 C31.2515754,11.7666342 31.2522804,11.2486588 30.9632175,10.9278408 C30.6741546,10.6089671 30.2038987,10.6074116 29.9137782,10.9262853 L29.0642154,11.8603519 C28.3345078,11.0826112 27.3531041,10.6276328 26.3248158,10.6276328 C26.3110677,10.6276328 26.2973195,10.6299661 26.2821614,10.6299661 C24.4836262,6.20267688 20.5840974,3.32581386 16.188579,3.18309844 L17.8073312,1.39662794 C18.096394,1.0769765 18.096394,0.559778901 17.8073312,0.239738585 C17.5175632,-0.0799128616 17.0473073,-0.0799128616 16.7578919,0.239738585 L13.8852414,3.40903212 C13.5954734,3.72790583 13.5954734,4.24588116 13.8852414,4.56514374 L16.7578919,7.73365954 C16.9031284,7.89309639 17.0931343,7.97359256 17.2824353,7.97359256 C17.4724412,7.97359256 17.6624472,7.89309639 17.8069786,7.73365954 C18.0967466,7.41400809 18.0967466,6.89681049 17.8069786,6.57599244 L16.2143127,4.81985383 C19.9012745,4.96879119 23.1814332,7.32534565 24.7917249,10.9694499 C23.3767269,11.6309184 22.3812225,13.1790114 22.3812225,14.9775368 C22.3812225,16.9911076 23.6287756,18.6842492 25.3141532,19.1777257 C23.9943344,23.6816224 20.1882223,26.7758639 15.8462863,26.7758639 L6.33012463,26.7758639 L6.33012463,24.9205634 C6.33012463,24.468696 5.99770231,24.1019913 5.58807906,24.1019913 L0.741693057,24.1019913 C0.3320698,24.1019913 0,24.468696 0,24.9205634 L0,30.2679199 C5.87056589e-17,30.7197873 0.3320698,31.0857143 0.741693057,31.0857143 Z M1.48373863,25.7395244 L4.846386,25.7395244 L4.846386,29.4489589 L1.48373863,29.4489589 L1.48373863,25.7395244 Z" id="Shape"></path>
                    </g>
                </g>
            </g>
        </g>
    </g>
</svg>