<?xml version="1.0" encoding="UTF-8"?>
<svg width="13px" height="13px" viewBox="0 0 13 13" version="1.1" xmlns="http://www.w3.org/2000/svg" xmlns:xlink="http://www.w3.org/1999/xlink">
    <!-- Generator: Sketch 51.3 (57544) - http://www.bohemiancoding.com/sketch -->
    <title>noun_filter_375748_000000</title>
    <desc>Created with Sketch.</desc>
    <defs></defs>
    <g id="v7" stroke="none" stroke-width="1" fill="none" fill-rule="evenodd">
        <g id="Desktop-hankkeet-ja-kokeilut--hankkeet--kategoria" transform="translate(-1171.000000, -315.000000)" fill="#000000" fill-rule="nonzero">
            <g id="select-&amp;-filter" transform="translate(512.000000, 312.000000)">
                <g id="rajaa" transform="translate(615.000000, 0.000000)">
                    <g id="noun_filter_375748_000000" transform="translate(44.000000, 3.000000)">
                        <path d="M12.963658,0.23231119 C12.8991617,0.0907515516 12.7589455,0 12.6046603,0 L0.395261811,0 C0.240976595,0 0.1009185,0.0905917778 0.036264142,0.23231119 C-0.0282321368,0.373870829 -0.00546874431,0.54035519 0.0947534144,0.658907393 L4.88249556,6.32416887 L4.88249556,12.6005654 C4.88249556,12.7656117 4.9828758,12.9135623 5.13526406,12.973158 C5.18158124,12.9912124 5.22995345,13 5.27769335,13 C5.38692601,13 5.4937875,12.9541449 5.57029779,12.869305 L8.01483322,10.150593 C8.08106836,10.077097 8.11758464,9.98123272 8.11758464,9.88185338 L8.11758464,6.32416887 L12.9053268,0.658907393 C13.0053909,0.54035519 13.0283123,0.373711055 12.963658,0.23231119 Z" id="Shape"></path>
                    </g>
                </g>
            </g>
        </g>
    </g>
</svg>