<?xml version="1.0" encoding="UTF-8"?>
<svg width="48px" height="48px" viewBox="0 0 48 48" version="1.1" xmlns="http://www.w3.org/2000/svg" xmlns:xlink="http://www.w3.org/1999/xlink">
    <!-- Generator: Sketch 51.3 (57544) - http://www.bohemiancoding.com/sketch -->
    <title>menetelmat</title>
    <desc>Created with Sketch.</desc>
    <defs></defs>
    <g id="v7" stroke="none" stroke-width="1" fill="none" fill-rule="evenodd">
        <g id="Desktop-koti" transform="translate(-549.000000, -1770.000000)" fill="#003479" fill-rule="nonzero">
            <g id="digikehittäjille" transform="translate(496.000000, 1690.000000)">
                <g id="Group-17" transform="translate(16.000000, 56.000000)">
                    <g id="menetelmat" transform="translate(37.000000, 24.000000)">
                        <path d="M24.8728796,9.81818182 L24.1383135,9.81818182 C16.3519125,9.81818182 11.2834061,13.9965695 9.15316433,22.2092624 C9.07970771,22.4253859 8.49205481,24.2264151 9.37353417,25.4511149 C9.59390401,25.7392796 9.88773046,26.0274443 10.4753834,26.2435678 L6.65563947,33.0154374 C6.50872624,33.2315609 6.50872624,33.5197256 6.65563947,33.7358491 C6.80255269,33.9519726 7.02292253,34.0960549 7.31674899,34.0960549 L10.9161231,34.0960549 L10.4019268,40.0034305 C10.4019268,40.7958834 10.6957532,41.5883362 11.2834061,42.1646655 C12.0179723,42.8850772 13.0463648,43.3173242 14.1482141,43.3173242 C14.8827802,43.3173242 16.058086,43.1012007 17.3068484,42.0926244 L17.3068484,47.2795883 C17.3068484,47.7118353 17.6006749,48 18.0414146,48 L32.0716278,48 C32.5123675,48 32.8061939,47.7118353 32.8061939,47.2795883 L32.8061939,40.219554 C34.0549563,38.490566 42.2820971,26.0274443 38.0950701,18.102916 C33.54076,9.81818182 27.0031214,9.81818182 24.8728796,9.81818182 Z M31.3370616,39.6432247 C31.263605,39.787307 31.1901484,39.9313894 31.1901484,40.0754717 L31.1901484,46.5591767 L18.6290675,46.5591767 L18.6290675,40.0754717 C18.6290675,39.787307 18.4086976,39.4991424 18.1148712,39.35506 C17.8210447,39.2830189 17.4537617,39.35506 17.3068484,39.6432247 C16.3519125,41.0120069 15.1766066,41.8044597 14.0013008,41.8044597 C13.3401913,41.8044597 12.6790818,41.516295 12.2383421,41.084048 C11.9445156,40.7238422 11.7241458,40.3636364 11.7976024,40.0034305 L12.3852553,33.3756432 C12.3852553,33.1595197 12.3117987,32.9433962 12.1648855,32.7993139 C12.0179723,32.6552316 11.7976024,32.5831904 11.6506892,32.5831904 L8.49205481,32.5831904 L12.2383421,25.9554031 C12.3852553,25.7392796 12.3852553,25.4511149 12.2383421,25.2349914 C12.0914289,25.0188679 11.871059,24.8747856 11.5772326,24.8747856 L11.503776,24.8747856 C10.8426664,24.8747856 10.6222966,24.6586621 10.6222966,24.5866209 C10.2550135,24.0823328 10.4753834,23.0017153 10.6222966,22.6415094 C13.6340178,11.2590051 21.567332,11.2590051 24.2117701,11.2590051 L24.9463363,11.2590051 C26.8562082,11.2590051 32.6592807,11.2590051 36.6993944,18.8233276 C40.6660516,26.3876501 31.4105182,39.4991424 31.3370616,39.6432247 Z" id="Shape"></path>
                        <path d="M21.9917355,3.50859951 L23.2561983,2.33906634 L23.2561983,6.94840295 C23.2561983,7.36117936 23.553719,7.63636364 24,7.63636364 C24.446281,7.63636364 24.7438017,7.36117936 24.7438017,6.94840295 L24.7438017,2.33906634 L26.0082645,3.50859951 C26.3057851,3.78378378 26.7520661,3.78378378 27.0495868,3.50859951 C27.3471074,3.23341523 27.3471074,2.82063882 27.0495868,2.54545455 L24.5206612,0.206388206 C24.446281,0.137592138 24.2975207,0 24,0 C24,0 24,0 24,0 C23.8512397,0 23.6280992,0.0687960688 23.4793388,0.206388206 L20.9504132,2.47665848 C20.6528926,2.75184275 20.6528926,3.16461916 20.9504132,3.43980344 C21.2479339,3.71498771 21.6942149,3.71498771 21.9917355,3.50859951 Z" id="Shape"></path>
                        <path d="M48,24.0376176 C48,23.8871473 47.9318182,23.7366771 47.7954545,23.5109718 L45.4772727,20.9529781 C45.2045455,20.6520376 44.7954545,20.6520376 44.5227273,20.9529781 C44.25,21.2539185 44.25,21.7053292 44.5227273,22.0062696 L45.6818182,23.2852665 L41.0454545,23.2852665 C40.6363636,23.2852665 40.3636364,23.5862069 40.3636364,24.0376176 C40.3636364,24.4890282 40.6363636,24.7899687 41.0454545,24.7899687 L45.6136364,24.7899687 L44.5227273,25.9937304 C44.25,26.2946708 44.25,26.7460815 44.5227273,27.0470219 C44.7954545,27.3479624 45.2045455,27.3479624 45.4772727,27.0470219 L47.7954545,24.5642633 C47.7954545,24.5642633 47.7954545,24.5642633 47.7954545,24.5642633 C47.9318182,24.4890282 48,24.2633229 48,24.0376176 Z" id="Shape"></path>
                        <path d="M2.33906634,24.7899687 L6.94840295,24.7899687 C7.36117936,24.7899687 7.63636364,24.4890282 7.63636364,24.0376176 C7.63636364,23.5862069 7.36117936,23.2852665 6.94840295,23.2852665 L2.33906634,23.2852665 L3.50859951,22.0062696 C3.78378378,21.7053292 3.78378378,21.2539185 3.50859951,20.9529781 C3.23341523,20.6520376 2.82063882,20.6520376 2.54545455,20.9529781 L0.206388206,23.5109718 C0.0687960688,23.5862069 0,23.7366771 0,23.9623824 C0,24.1880878 0.0687960688,24.4137931 0.206388206,24.4890282 C0.206388206,24.4890282 0.206388206,24.4890282 0.206388206,24.4890282 L2.54545455,27.0470219 C2.82063882,27.3479624 3.23341523,27.3479624 3.50859951,27.0470219 C3.78378378,26.7460815 3.78378378,26.2946708 3.50859951,25.9937304 L2.33906634,24.7899687 Z" id="Shape"></path>
                        <path d="M36.2181818,12.8467578 L39.9144385,9.19044604 L39.9144385,10.979705 C39.9144385,11.4464682 40.2224599,11.7576437 40.684492,11.7576437 C41.1465241,11.7576437 41.4545455,11.4464682 41.4545455,10.979705 L41.4545455,7.32339322 C41.4545455,7.09001162 41.3775401,6.93442388 41.2235294,6.77883615 C41.2235294,6.77883615 41.2235294,6.77883615 41.2235294,6.77883615 C41.0695187,6.62324841 40.915508,6.54545455 40.684492,6.54545455 L36.9882353,6.54545455 C36.9882353,6.54545455 36.9882353,6.54545455 36.9882353,6.54545455 C36.6032086,6.54545455 36.2181818,6.85663001 36.2181818,7.32339322 C36.2181818,7.79015642 36.5262032,8.10133189 36.9882353,8.10133189 L38.8363636,8.10133189 L35.140107,11.8354375 C34.8320856,12.146613 34.8320856,12.6133762 35.140107,12.9245517 C35.371123,13.1579333 35.9101604,13.1579333 36.2181818,12.8467578 Z" id="Shape"></path>
                        <path d="M7.31550802,11.7818182 C7.77754011,11.7818182 8.0855615,11.4737968 8.0855615,11.0117647 L8.0855615,9.24064171 L11.7818182,12.859893 C12.0898396,13.1679144 12.5518717,13.1679144 12.859893,12.859893 C13.1679144,12.5518717 13.1679144,12.0898396 12.859893,11.7818182 L9.16363636,8.0855615 L11.0117647,8.0855615 C11.4737968,8.0855615 11.7818182,7.70053476 11.7818182,7.31550802 C11.7818182,6.93048128 11.3967914,6.54545455 11.0117647,6.54545455 C11.0117647,6.54545455 11.0117647,6.54545455 11.0117647,6.54545455 L7.31550802,6.54545455 C7.31550802,6.54545455 7.31550802,6.54545455 7.31550802,6.54545455 C7.16149733,6.54545455 6.93048128,6.54545455 6.77647059,6.77647059 C6.77647059,6.77647059 6.77647059,6.77647059 6.77647059,6.77647059 C6.62245989,6.93048128 6.54545455,7.08449198 6.54545455,7.31550802 C6.54545455,7.31550802 6.54545455,7.31550802 6.54545455,7.31550802 L6.54545455,10.9347594 C6.54545455,11.3967914 6.93048128,11.7818182 7.31550802,11.7818182 Z" id="Shape"></path>
                        <path d="M25.1725462,14.4727273 C25.0304843,14.2545455 24.8173914,14.1818182 24.6042985,14.1818182 C24.6042985,14.1818182 24.6042985,14.1818182 24.6042985,14.1818182 C24.3912056,14.1818182 24.1781128,14.3272727 24.0360508,14.4727273 L17.5722334,23.6363636 C17.4301715,23.8545455 17.4301715,24.1454545 17.5012024,24.3636364 C17.6432644,24.5818182 17.8563572,24.7272727 18.1404811,24.7272727 L20.5555338,24.7272727 L20.5555338,32 C20.5555338,32.2181818 20.6265647,32.3636364 20.7686266,32.5090909 C20.9106886,32.6545455 21.0527505,32.7272727 21.2658434,32.7272727 L27.8006918,32.7272727 C27.8006918,32.7272727 27.8006918,32.7272727 27.8006918,32.7272727 C28.2268775,32.7272727 28.5110014,32.4363636 28.5110014,32 L28.5110014,24.7272727 L30.926054,24.7272727 C30.926054,24.7272727 30.926054,24.7272727 30.926054,24.7272727 C31.2812088,24.7272727 31.6363636,24.4363636 31.6363636,24 C31.6363636,23.7818182 31.5653327,23.6363636 31.4232708,23.4909091 L25.1725462,14.4727273 Z M27.8006918,23.4181818 C27.8006918,23.4181818 27.8006918,23.4181818 27.8006918,23.4181818 C27.5875989,23.4181818 27.445537,23.4909091 27.303475,23.6363636 C27.1614131,23.7818182 27.0903821,23.9272727 27.0903821,24.1454545 L27.0903821,31.4181818 L21.976153,31.4181818 L21.976153,24.1454545 C21.976153,23.9272727 21.905122,23.7818182 21.7630601,23.6363636 C21.6209982,23.4909091 21.4789362,23.4181818 21.2658434,23.4181818 L19.4900693,23.4181818 L24.5332676,16.2181818 L29.5054348,23.4909091 L27.8006918,23.4181818 Z" id="Shape"></path>
                    </g>
                </g>
            </g>
        </g>
    </g>
</svg>