<?xml version="1.0" encoding="UTF-8"?>
<svg width="24px" height="24px" viewBox="0 0 24 24" version="1.1" xmlns="http://www.w3.org/2000/svg" xmlns:xlink="http://www.w3.org/1999/xlink">
    <!-- Generator: Sketch 51.3 (57544) - http://www.bohemiancoding.com/sketch -->
    <title>noun_1727506</title>
    <desc>Created with Sketch.</desc>
    <defs></defs>
    <g id="v7" stroke="none" stroke-width="1" fill="none" fill-rule="evenodd">
        <g id="Desktop-hankkeet-ja-kokeilut" transform="translate(-980.000000, -244.000000)" fill="#EA7125" fill-rule="nonzero">
            <g id="search" transform="translate(677.000000, 232.000000)">
                <g id="noun_1727506" transform="translate(303.000000, 12.000000)">
                    <path d="M0,9.41701821 C0,14.6089104 4.2428815,18.8328017 9.45811586,18.8328017 C11.7612526,18.8328017 13.8721513,18.0067908 15.5154772,16.6399835 L22.9085835,24 L24,22.9134685 L16.6118547,15.5583908 C18.0443388,13.9076037 18.917472,11.7629386 18.917472,9.41578352 C18.917472,4.22389135 14.6733502,0 9.45811586,0 C4.2428815,0 0,4.22512604 0,9.41701821 Z M9.45935611,1.53842988 C13.8237817,1.53842988 17.374606,5.07336146 17.374606,9.41701821 C17.374606,13.760675 13.8237817,17.2956065 9.45935611,17.2956065 C5.09493049,17.2956065 1.54534649,13.760675 1.54534649,9.41701821 C1.54534649,5.07336146 5.09493049,1.53842988 9.45935611,1.53842988 Z" id="Shape"></path>
                    <polygon id="Shape" points="8.56824234 13 10.4332557 13 10.4332557 9.82956059 14 9.82956059 14 8.17177097 10.4332557 8.17177097 10.4332557 5 8.56824234 5 8.56824234 8.17177097 5 8.17177097 5 9.82956059 8.56824234 9.82956059"></polygon>
                </g>
            </g>
        </g>
    </g>
</svg>