<?xml version="1.0" encoding="UTF-8"?>
<svg width="32px" height="32px" viewBox="0 0 32 32" version="1.1" xmlns="http://www.w3.org/2000/svg" xmlns:xlink="http://www.w3.org/1999/xlink">
    <!-- Generator: Sketch 51.3 (57544) - http://www.bohemiancoding.com/sketch -->
    <title>Combined Shape</title>
    <desc>Created with Sketch.</desc>
    <defs></defs>
    <g id="v7" stroke="none" stroke-width="1" fill="none" fill-rule="evenodd">
        <g id="Desktop-kehittäminen" transform="translate(-528.000000, -810.000000)" fill="#003479" fill-rule="nonzero">
            <g id="palvelut" transform="translate(496.000000, 738.000000)">
                <g id="item" transform="translate(16.000000, 56.000000)">
                    <path d="M33.9556737,48 L33.2307692,48 L33.2307692,33.2307692 L48,33.2307692 L48,33.9556566 C48,41.6997533 41.6989076,48 33.9556737,48 Z M34.6805781,34.6805439 L34.6805781,46.5303606 C41.0489332,46.166523 46.1671767,41.0490972 46.5296289,34.6805439 L34.6805781,34.6805439 Z M30.88457,44.3076923 L30.1540218,44.3076923 C22.3490968,44.3076923 16,37.9582443 16,30.1540218 C16,22.3490968 22.3490968,16 30.1540218,16 C37.9589467,16 44.3076923,22.3490968 44.3076923,30.1540218 L44.3076923,30.88457 L30.88457,30.88457 L30.88457,44.3076923 Z M30.1540218,17.4610966 C23.1548073,17.4610966 17.4610966,23.1548073 17.4610966,30.1540218 C17.4610966,36.9077299 22.7635424,42.4461991 29.4234735,42.8265759 L29.4234735,29.4234735 L42.8262247,29.4234735 C42.4465503,22.76284 36.9077299,17.4610966 30.1540218,17.4610966 Z" id="Combined-Shape"></path>
                </g>
            </g>
        </g>
    </g>
</svg>