<?xml version="1.0" encoding="UTF-8"?>
<svg width="20px" height="21px" viewBox="0 0 20 21" version="1.1" xmlns="http://www.w3.org/2000/svg" xmlns:xlink="http://www.w3.org/1999/xlink">
    <!-- Generator: Sketch 51.3 (57544) - http://www.bohemiancoding.com/sketch -->
    <title>share</title>
    <desc>Created with Sketch.</desc>
    <defs></defs>
    <g id="v7" stroke="none" stroke-width="1" fill="none" fill-rule="evenodd">
        <g id="Desktop-Koti---Artikkelit--artikkeli" transform="translate(-1135.000000, -180.000000)" fill-rule="nonzero">
            <g id="info-actions" transform="translate(512.000000, 176.000000)">
                <g id="share" transform="translate(623.000000, 4.000000)">
                    <path d="M7,9.86996359 L13.5,5.5" id="Path-4" stroke="#4F4F4F"></path>
                    <path d="M16,20.5 C14.0670034,20.5 12.5,18.9329966 12.5,17 C12.5,15.0670034 14.0670034,13.5 16,13.5 C17.9329966,13.5 19.5,15.0670034 19.5,17 C19.5,18.9329966 17.9329966,20.5 16,20.5 Z M16,19.5 C17.3807119,19.5 18.5,18.3807119 18.5,17 C18.5,15.6192881 17.3807119,14.5 16,14.5 C14.6192881,14.5 13.5,15.6192881 13.5,17 C13.5,18.3807119 14.6192881,19.5 16,19.5 Z" id="Oval-2" fill="#4F4F4F"></path>
                    <path d="M16,7.5 C14.0670034,7.5 12.5,5.93299662 12.5,4 C12.5,2.06700338 14.0670034,0.5 16,0.5 C17.9329966,0.5 19.5,2.06700338 19.5,4 C19.5,5.93299662 17.9329966,7.5 16,7.5 Z M16,6.5 C17.3807119,6.5 18.5,5.38071187 18.5,4 C18.5,2.61928813 17.3807119,1.5 16,1.5 C14.6192881,1.5 13.5,2.61928813 13.5,4 C13.5,5.38071187 14.6192881,6.5 16,6.5 Z" id="Oval-2-Copy" fill="#4F4F4F"></path>
                    <path d="M4,14.5 C2.06700338,14.5 0.5,12.9329966 0.5,11 C0.5,9.06700338 2.06700338,7.5 4,7.5 C5.93299662,7.5 7.5,9.06700338 7.5,11 C7.5,12.9329966 5.93299662,14.5 4,14.5 Z M4,13.5 C5.38071187,13.5 6.5,12.3807119 6.5,11 C6.5,9.61928813 5.38071187,8.5 4,8.5 C2.61928813,8.5 1.5,9.61928813 1.5,11 C1.5,12.3807119 2.61928813,13.5 4,13.5 Z" id="Oval-2-Copy-2" fill="#4F4F4F"></path>
                    <polygon id="Path-4-Copy" fill="#4F4F4F" points="6.70991304 12.2772099 7.29008696 11.4627173 13.790087 16.0927537 13.209913 16.9072463"></polygon>
                </g>
            </g>
        </g>
    </g>
</svg>