<svg version="1.1" x="0px" y="0px" viewBox="0 0 17 15">
    <path fill="var(--stroke-color)"  d="M12.3,0C11,0,9.8,0.5,8.9,1.4L8.5,1.8L8.1,1.4C6.3-0.4,3.3-0.5,1.5,1.3c0,0-0.1,0.1-0.1,0.1
	c-1.8,1.9-1.8,5,0,6.9l6.1,6.3c0.5,0.6,1.4,0.6,2,0c0,0,0,0,0,0l6.1-6.3c1.8-1.9,1.8-5,0-6.9C14.8,0.5,13.5,0,12.3,0 M4.7,1.4
	c0.9,0,1.7,0.4,2.3,1l0.4,0.4l1,1l1-1l0.4-0.4c1.3-1.3,3.3-1.3,4.6-0.1c0,0,0,0,0.1,0.1c1.3,1.4,1.3,3.5,0,4.9l-6.1,6.3L2.4,7.3
	c-1.3-1.4-1.3-3.5,0-4.9C3,1.8,3.9,1.4,4.7,1.4"/>
    <path  fill="var(--fill-color)" d="M4.7,1.4c0.9,0,1.7,0.4,2.3,1l0.4,0.4l1,1l1-1l0.4-0.4c1.3-1.3,3.3-1.3,4.6-0.1c0,0,0,0,0.1,0.1
	c1.3,1.4,1.3,3.5,0,4.9l-6.1,6.3L2.4,7.3c-1.3-1.4-1.3-3.5,0-4.9C3,1.8,3.9,1.4,4.7,1.4"/>
</svg>
