<svg fill="currentColor" width="42.307" height="42.307" viewBox="0 0 42.307 42.307">
  <path d="M21.154,3.526A17.628,17.628,0,1,0,38.782,21.154,17.648,17.648,0,0,0,21.154,3.526m0,38.782A21.154,21.154,0,1,1,42.307,21.154,21.177,21.177,0,0,1,21.154,42.307Zm0-15.865a1.762,1.762,0,0,0,1.763-1.763v-14.1a1.763,1.763,0,1,0-3.526,0v14.1A1.762,1.762,0,0,0,21.154,26.442Zm0,7.051a1.746,1.746,0,0,0,1.763-1.763,1.82,1.82,0,0,0-.511-1.252,1.846,1.846,0,0,0-2.5,0,1.813,1.813,0,0,0-.511,1.252,1.746,1.746,0,0,0,1.763,1.763Z"/>
</svg>
