<svg xmlns="http://www.w3.org/2000/svg" width="24" height="24" viewBox="0 0 24 24">
    <path fill="var(--circle-color)" d="M12,24A12,12,0,1,1,24,12,12.013,12.013,0,0,1,12,24ZM12,1A11,11,0,1,0,23,12,11.013,11.013,0,0,0,12,1Z"/>
    <path fill="var(--pw-color)" class="b" d="M12,13.5a4.75,4.75,0,1,1,4.75-4.75A4.756,4.756,0,0,1,12,13.5ZM12,5a3.75,3.75,0,1,0,3.75,3.75A3.754,3.754,0,0,0,12,5Z"/>
    <path fill="var(--pw-color)" d="M5.683,19a.48.48,0,0,1-.214-.049.5.5,0,0,1-.237-.666A7.5,7.5,0,0,1,8.8,14.718,7.413,7.413,0,0,1,11.989,14a7.531,7.531,0,0,1,6.781,4.286.5.5,0,0,1-.238.666.507.507,0,0,1-.215.048.5.5,0,0,1-.452-.286A6.526,6.526,0,0,0,11.989,15a6.4,6.4,0,0,0-2.763.623,6.506,6.506,0,0,0-3.091,3.091A.5.5,0,0,1,5.683,19Z"/>
</svg>
